M48
; DRILL file {KiCad (7.0.0)} date Thu Dec 21 18:15:25 2023
; FORMAT={-:-/ absolute / inch / decimal}
; #@! TF.CreationDate,2023-12-21T18:15:25-08:00
; #@! TF.GenerationSoftware,Kicad,Pcbnew,(7.0.0)
; #@! TF.FileFunction,NonPlated,1,2,NPTH
FMAT,2
INCH
; #@! TA.AperFunction,NonPlated,NPTH,ComponentDrill
T1C0.0591
; #@! TA.AperFunction,NonPlated,NPTH,ComponentDrill
T2C0.0669
; #@! TA.AperFunction,NonPlated,NPTH,ComponentDrill
T3C0.0866
; #@! TA.AperFunction,NonPlated,NPTH,ComponentDrill
T4C0.1201
; #@! TA.AperFunction,NonPlated,NPTH,ComponentDrill
T5C0.1575
%
G90
G05
T2
X9.14Y-5.1
X9.235Y-8.1
X9.33Y-5.85
X9.42Y-6.6
X9.54Y-5.1
X9.6085Y-7.3506
X9.635Y-8.1
X9.73Y-5.85
X9.82Y-6.6
X9.89Y-5.1
X10.0085Y-7.3506
X10.17Y-8.1
X10.27Y-5.85
X10.29Y-5.1
X10.45Y-6.6
X10.57Y-8.1
X10.64Y-5.1
X10.67Y-5.85
X10.83Y-7.35
X10.85Y-6.6
X11.02Y-5.85
X11.04Y-5.1
X11.11Y-8.1
X11.2Y-6.6
X11.23Y-7.35
X11.39Y-5.1
X11.42Y-5.85
X11.51Y-8.1
X11.58Y-7.35
X11.6Y-6.6
X11.77Y-5.85
X11.79Y-5.1
X11.95Y-6.6
X11.98Y-7.35
X12.14Y-5.1
X12.17Y-5.85
X12.33Y-7.35
X12.35Y-6.6
X12.52Y-5.85
X12.54Y-5.1
X12.7Y-6.6
X12.73Y-7.35
X12.89Y-5.1
X12.92Y-5.85
X13.08Y-7.35
X13.1Y-6.6
X13.27Y-5.85
X13.29Y-5.1
X13.45Y-6.6
X13.48Y-7.35
X13.64Y-5.1
X13.67Y-5.85
X13.83Y-7.35
X13.85Y-6.6
X13.9235Y-8.1006
X14.02Y-5.85
X14.04Y-5.1
X14.2Y-6.6
X14.23Y-7.35
X14.3235Y-8.1006
X14.39Y-5.1
X14.42Y-5.85
X14.58Y-7.35
X14.6Y-6.6
X14.77Y-5.85
X14.79Y-5.1
X14.95Y-6.6
X14.98Y-7.35
X15.14Y-5.1
X15.17Y-5.85
X15.33Y-7.35
X15.35Y-6.6
X15.52Y-5.85
X15.54Y-5.1
X15.7Y-6.6
X15.73Y-7.35
X15.89Y-5.1
X15.92Y-5.85
X16.08Y-7.35
X16.1Y-6.6
X16.27Y-5.85
X16.29Y-5.1
X16.45Y-6.6
X16.48Y-7.35
X16.64Y-5.1
X16.67Y-5.85
X16.735Y-8.1
X16.83Y-7.35
X16.85Y-6.6
X17.02Y-5.85
X17.04Y-5.1
X17.135Y-8.1
X17.2Y-6.6
X17.23Y-7.35
X17.39Y-5.1
X17.42Y-5.85
X17.58Y-7.35
X17.6Y-6.6
X17.675Y-8.1
X17.77Y-5.85
X17.79Y-5.1
X17.95Y-6.6
X17.98Y-7.35
X18.075Y-8.1
X18.14Y-5.1
X18.17Y-5.85
X18.35Y-6.6
X18.52Y-5.85
X18.54Y-5.1
X18.615Y-8.1
X18.89Y-5.1
X18.92Y-5.85
X18.9865Y-7.3506
X19.015Y-8.1
X19.1685Y-6.6006
X19.29Y-5.1
X19.3865Y-7.3506
X19.455Y-5.85
X19.55Y-8.1
X19.5685Y-6.6006
X19.855Y-5.85
X19.95Y-8.1
T3
X7.135Y-8.47
X7.15Y-4.14
X20.24Y-4.145
X20.26Y-8.47
T4
X9.34Y-7.075
X10.277Y-7.075
X12.155Y-7.825
X16.092Y-7.825
X18.718Y-7.075
X18.9Y-6.325
X19.655Y-7.075
X19.837Y-6.325
T5
X9.34Y-5.1
X9.34Y-7.675
X9.435Y-8.1
X9.53Y-5.85
X9.62Y-6.6
X9.8085Y-7.3506
X10.09Y-5.1
X10.277Y-7.675
X10.37Y-8.1
X10.47Y-5.85
X10.65Y-6.6
X10.84Y-5.1
X11.03Y-7.35
X11.22Y-5.85
X11.31Y-8.1
X11.4Y-6.6
X11.59Y-5.1
X11.78Y-7.35
X11.97Y-5.85
X12.15Y-6.6
X12.155Y-8.425
X12.34Y-5.1
X12.53Y-7.35
X12.72Y-5.85
X12.9Y-6.6
X13.09Y-5.1
X13.28Y-7.35
X13.47Y-5.85
X13.65Y-6.6
X13.84Y-5.1
X14.03Y-7.35
X14.1235Y-8.1006
X14.22Y-5.85
X14.4Y-6.6
X14.59Y-5.1
X14.78Y-7.35
X14.97Y-5.85
X15.15Y-6.6
X15.34Y-5.1
X15.53Y-7.35
X15.72Y-5.85
X15.9Y-6.6
X16.09Y-5.1
X16.092Y-8.425
X16.28Y-7.35
X16.47Y-5.85
X16.65Y-6.6
X16.84Y-5.1
X16.935Y-8.1
X17.03Y-7.35
X17.22Y-5.85
X17.4Y-6.6
X17.59Y-5.1
X17.78Y-7.35
X17.875Y-8.1
X17.97Y-5.85
X18.15Y-6.6
X18.34Y-5.1
X18.718Y-7.675
X18.72Y-5.85
X18.815Y-8.1
X18.9Y-6.925
X19.09Y-5.1
X19.1865Y-7.3506
X19.3685Y-6.6006
X19.655Y-5.85
X19.655Y-7.675
X19.75Y-8.1
X19.837Y-6.925
T1
G00X19.528Y-5.0788
M15
G01X19.528Y-5.13
M16
G05
G00X19.9689Y-5.0788
M15
G01X19.9689Y-5.13
M16
G05
T0
M30
