%TF.GenerationSoftware,KiCad,Pcbnew,(7.0.0)*%
%TF.CreationDate,2023-12-21T18:15:09-08:00*%
%TF.ProjectId,Seeb61,53656562-3631-42e6-9b69-6361645f7063,rev?*%
%TF.SameCoordinates,Original*%
%TF.FileFunction,Copper,L2,Bot*%
%TF.FilePolarity,Positive*%
%FSLAX46Y46*%
G04 Gerber Fmt 4.6, Leading zero omitted, Abs format (unit mm)*
G04 Created by KiCad (PCBNEW (7.0.0)) date 2023-12-21 18:15:09*
%MOMM*%
%LPD*%
G01*
G04 APERTURE LIST*
G04 Aperture macros list*
%AMRoundRect*
0 Rectangle with rounded corners*
0 $1 Rounding radius*
0 $2 $3 $4 $5 $6 $7 $8 $9 X,Y pos of 4 corners*
0 Add a 4 corners polygon primitive as box body*
4,1,4,$2,$3,$4,$5,$6,$7,$8,$9,$2,$3,0*
0 Add four circle primitives for the rounded corners*
1,1,$1+$1,$2,$3*
1,1,$1+$1,$4,$5*
1,1,$1+$1,$6,$7*
1,1,$1+$1,$8,$9*
0 Add four rect primitives between the rounded corners*
20,1,$1+$1,$2,$3,$4,$5,0*
20,1,$1+$1,$4,$5,$6,$7,0*
20,1,$1+$1,$6,$7,$8,$9,0*
20,1,$1+$1,$8,$9,$2,$3,0*%
G04 Aperture macros list end*
%TA.AperFunction,ComponentPad*%
%ADD10C,2.200000*%
%TD*%
%TA.AperFunction,ComponentPad*%
%ADD11C,1.651000*%
%TD*%
%TA.AperFunction,ComponentPad*%
%ADD12R,1.651000X1.651000*%
%TD*%
%TA.AperFunction,ComponentPad*%
%ADD13R,1.600000X1.600000*%
%TD*%
%TA.AperFunction,ComponentPad*%
%ADD14C,1.600000*%
%TD*%
%TA.AperFunction,ComponentPad*%
%ADD15C,2.000000*%
%TD*%
%TA.AperFunction,ComponentPad*%
%ADD16C,1.800000*%
%TD*%
%TA.AperFunction,ComponentPad*%
%ADD17RoundRect,0.450000X-0.450000X-0.450000X0.450000X-0.450000X0.450000X0.450000X-0.450000X0.450000X0*%
%TD*%
%TA.AperFunction,WasherPad*%
%ADD18O,2.000000X3.200000*%
%TD*%
%TA.AperFunction,ComponentPad*%
%ADD19R,2.000000X2.000000*%
%TD*%
%TA.AperFunction,ViaPad*%
%ADD20C,0.800000*%
%TD*%
%TA.AperFunction,Conductor*%
%ADD21C,0.250000*%
%TD*%
%TA.AperFunction,Conductor*%
%ADD22C,0.381000*%
%TD*%
G04 APERTURE END LIST*
D10*
%TO.P,MX22,1,1*%
%TO.N,COL0*%
X251676000Y-181625000D03*
%TO.P,MX22,2,2*%
%TO.N,Net-(D22-A)*%
X245326000Y-184165000D03*
%TD*%
%TO.P,MX55,1,1*%
%TO.N,Expander_COL5*%
X494500000Y-162575000D03*
%TO.P,MX55,2,2*%
%TO.N,Net-(D63-A)*%
X488150000Y-165115000D03*
%TD*%
D11*
%TO.P,D27,1,K*%
%TO.N,ROW3*%
X320675000Y-110109000D03*
D12*
%TO.P,D27,2,A*%
%TO.N,Net-(D27-A)*%
X330834999Y-110108999D03*
%TD*%
D10*
%TO.P,MX48,1,1*%
%TO.N,Expander_COL5*%
X478028000Y-143510000D03*
%TO.P,MX48,2,2*%
%TO.N,Net-(D62-A)*%
X471678000Y-146050000D03*
%TD*%
%TO.P,MX52,1,1*%
%TO.N,Expander_COL2*%
X425450000Y-162560000D03*
%TO.P,MX52,2,2*%
%TO.N,Net-(D48-A)*%
X419100000Y-165100000D03*
%TD*%
D11*
%TO.P,D69,1,K*%
%TO.N,Net-(D39-K)*%
X471678000Y-110109000D03*
D12*
%TO.P,D69,2,A*%
%TO.N,Net-(D69-A)*%
X481837999Y-110108999D03*
%TD*%
D11*
%TO.P,D49,1,K*%
%TO.N,Net-(D39-K)*%
X393065000Y-110109000D03*
D12*
%TO.P,D49,2,A*%
%TO.N,Net-(D49-A)*%
X403224999Y-110108999D03*
%TD*%
D11*
%TO.P,D46,1,K*%
%TO.N,Net-(D36-K)*%
X393065000Y-117729000D03*
D12*
%TO.P,D46,2,A*%
%TO.N,Net-(D46-A)*%
X403224999Y-117728999D03*
%TD*%
D10*
%TO.P,MX8,1,1*%
%TO.N,COL0*%
X244602000Y-143510000D03*
%TO.P,MX8,2,2*%
%TO.N,Net-(D8-A)*%
X238252000Y-146050000D03*
%TD*%
D11*
%TO.P,D38,1,K*%
%TO.N,Net-(D38-K)*%
X358267000Y-112649000D03*
D12*
%TO.P,D38,2,A*%
%TO.N,Net-(D38-A)*%
X368426999Y-112648999D03*
%TD*%
D10*
%TO.P,MX45,1,1*%
%TO.N,Expander_COL2*%
X420878000Y-143510000D03*
%TO.P,MX45,2,2*%
%TO.N,Net-(D47-A)*%
X414528000Y-146050000D03*
%TD*%
%TO.P,MX11,1,1*%
%TO.N,COL3*%
X306578000Y-143510000D03*
%TO.P,MX11,2,2*%
%TO.N,Net-(D11-A)*%
X300228000Y-146050000D03*
%TD*%
D11*
%TO.P,D9,1,K*%
%TO.N,ROW1*%
X247142000Y-115316000D03*
D12*
%TO.P,D9,2,A*%
%TO.N,Net-(D9-A)*%
X257301999Y-115315999D03*
%TD*%
D10*
%TO.P,MX34,1,1*%
%TO.N,COL5*%
X456565000Y-200660000D03*
%TO.P,MX34,2,2*%
%TO.N,Net-(D34-A)*%
X450215000Y-203200000D03*
%TD*%
%TO.P,MX9,1,1*%
%TO.N,COL1*%
X268478000Y-143510000D03*
%TO.P,MX9,2,2*%
%TO.N,Net-(D9-A)*%
X262128000Y-146050000D03*
%TD*%
%TO.P,MX62,1,1*%
%TO.N,Expander_COL5*%
X504190000Y-200660000D03*
%TO.P,MX62,2,2*%
%TO.N,Net-(D64-A)*%
X497840000Y-203200000D03*
%TD*%
%TO.P,MX51,1,1*%
%TO.N,Expander_COL1*%
X406400000Y-162560000D03*
%TO.P,MX51,2,2*%
%TO.N,Net-(D43-A)*%
X400050000Y-165100000D03*
%TD*%
D11*
%TO.P,D26,1,K*%
%TO.N,ROW3*%
X301752000Y-110109000D03*
D12*
%TO.P,D26,2,A*%
%TO.N,Net-(D26-A)*%
X311911999Y-110108999D03*
%TD*%
D11*
%TO.P,D29,1,K*%
%TO.N,ROW4*%
X228473000Y-107569000D03*
D12*
%TO.P,D29,2,A*%
%TO.N,Net-(D29-A)*%
X238632999Y-107568999D03*
%TD*%
D11*
%TO.P,D44,1,K*%
%TO.N,Net-(D39-K)*%
X377063000Y-110109000D03*
D12*
%TO.P,D44,2,A*%
%TO.N,Net-(D44-A)*%
X387222999Y-110108999D03*
%TD*%
D10*
%TO.P,MX21,1,1*%
%TO.N,COL6*%
X368300000Y-162560000D03*
%TO.P,MX21,2,2*%
%TO.N,Net-(D21-A)*%
X361950000Y-165100000D03*
%TD*%
%TO.P,MX18,1,1*%
%TO.N,COL3*%
X311150000Y-162560000D03*
%TO.P,MX18,2,2*%
%TO.N,Net-(D18-A)*%
X304800000Y-165100000D03*
%TD*%
D11*
%TO.P,D13,1,K*%
%TO.N,ROW1*%
X320675000Y-115189000D03*
D12*
%TO.P,D13,2,A*%
%TO.N,Net-(D13-A)*%
X330834999Y-115188999D03*
%TD*%
D11*
%TO.P,D67,1,K*%
%TO.N,Net-(D37-K)*%
X471678000Y-115189000D03*
D12*
%TO.P,D67,2,A*%
%TO.N,Net-(D67-A)*%
X481837999Y-115188999D03*
%TD*%
D11*
%TO.P,D64,1,K*%
%TO.N,Net-(D39-K)*%
X454152000Y-110109000D03*
D12*
%TO.P,D64,2,A*%
%TO.N,Net-(D64-A)*%
X464311999Y-110108999D03*
%TD*%
D10*
%TO.P,MX25,1,1*%
%TO.N,COL3*%
X320802000Y-181610000D03*
%TO.P,MX25,2,2*%
%TO.N,Net-(D25-A)*%
X314452000Y-184150000D03*
%TD*%
D11*
%TO.P,D15,1,K*%
%TO.N,ROW2*%
X228473000Y-112776000D03*
D12*
%TO.P,D15,2,A*%
%TO.N,Net-(D15-A)*%
X238632999Y-112775999D03*
%TD*%
D11*
%TO.P,D41,1,K*%
%TO.N,Net-(D36-K)*%
X377063000Y-117729000D03*
D12*
%TO.P,D41,2,A*%
%TO.N,Net-(D41-A)*%
X387222999Y-117728999D03*
%TD*%
D10*
%TO.P,MX26,1,1*%
%TO.N,COL4*%
X339852000Y-181610000D03*
%TO.P,MX26,2,2*%
%TO.N,Net-(D26-A)*%
X333502000Y-184150000D03*
%TD*%
D13*
%TO.P,U2,1,GPB0*%
%TO.N,Net-(D36-K)*%
X202310999Y-167512999D03*
D14*
%TO.P,U2,2,GPB1*%
%TO.N,Net-(D37-K)*%
X202311000Y-170053000D03*
%TO.P,U2,3,GPB2*%
%TO.N,Net-(D38-K)*%
X202311000Y-172593000D03*
%TO.P,U2,4,GPB3*%
%TO.N,Net-(D39-K)*%
X202311000Y-175133000D03*
%TO.P,U2,5,GPB4*%
%TO.N,unconnected-(U2-GPB4-Pad5)*%
X202311000Y-177673000D03*
%TO.P,U2,6,GPB5*%
%TO.N,unconnected-(U2-GPB5-Pad6)*%
X202311000Y-180213000D03*
%TO.P,U2,7,GPB6*%
%TO.N,unconnected-(U2-GPB6-Pad7)*%
X202311000Y-182753000D03*
%TO.P,U2,8,GPB7*%
%TO.N,unconnected-(U2-GPB7-Pad8)*%
X202311000Y-185293000D03*
%TO.P,U2,9,VDD*%
%TO.N,VDD*%
X202311000Y-187833000D03*
%TO.P,U2,10,VSS*%
%TO.N,GND*%
X202311000Y-190373000D03*
%TO.P,U2,11,NC*%
%TO.N,unconnected-(U2-NC-Pad11)*%
X202311000Y-192913000D03*
%TO.P,U2,12,SCK*%
%TO.N,SCL*%
X202311000Y-195453000D03*
%TO.P,U2,13,SDA*%
%TO.N,SDA*%
X202311000Y-197993000D03*
%TO.P,U2,14,NC*%
%TO.N,unconnected-(U2-NC-Pad14)*%
X202311000Y-200533000D03*
%TO.P,U2,15,A0*%
%TO.N,GND*%
X209931000Y-200533000D03*
%TO.P,U2,16,A1*%
X209931000Y-197993000D03*
%TO.P,U2,17,A2*%
X209931000Y-195453000D03*
%TO.P,U2,18,~{RESET}*%
%TO.N,VDD*%
X209931000Y-192913000D03*
%TO.P,U2,19,INTB*%
%TO.N,unconnected-(U2-INTB-Pad19)*%
X209931000Y-190373000D03*
%TO.P,U2,20,INTA*%
%TO.N,unconnected-(U2-INTA-Pad20)*%
X209931000Y-187833000D03*
%TO.P,U2,21,GPA0*%
%TO.N,Expander_COL0*%
X209931000Y-185293000D03*
%TO.P,U2,22,GPA1*%
%TO.N,Expander_COL1*%
X209931000Y-182753000D03*
%TO.P,U2,23,GPA2*%
%TO.N,Expander_COL2*%
X209931000Y-180213000D03*
%TO.P,U2,24,GPA3*%
%TO.N,Expander_COL3*%
X209931000Y-177673000D03*
%TO.P,U2,25,GPA4*%
%TO.N,Expander_COL4*%
X209931000Y-175133000D03*
%TO.P,U2,26,GPA5*%
%TO.N,Expander_COL5*%
X209931000Y-172593000D03*
%TO.P,U2,27,GPA6*%
%TO.N,Expander_COL6*%
X209931000Y-170053000D03*
%TO.P,U2,28,GPA7*%
%TO.N,unconnected-(U2-GPA7-Pad28)*%
X209931000Y-167513000D03*
%TD*%
D11*
%TO.P,D5,1,K*%
%TO.N,ROW0*%
X301752000Y-117729000D03*
D12*
%TO.P,D5,2,A*%
%TO.N,Net-(D5-A)*%
X311911999Y-117728999D03*
%TD*%
D10*
%TO.P,MX57,1,1*%
%TO.N,Expander_COL0*%
X397002000Y-181610000D03*
%TO.P,MX57,2,2*%
%TO.N,Net-(D39-A)*%
X390652000Y-184150000D03*
%TD*%
D11*
%TO.P,D7,1,K*%
%TO.N,ROW0*%
X338201000Y-117729000D03*
D12*
%TO.P,D7,2,A*%
%TO.N,Net-(D7-A)*%
X348360999Y-117728999D03*
%TD*%
D10*
%TO.P,MX1,1,1*%
%TO.N,COL0*%
X239776000Y-124460000D03*
%TO.P,MX1,2,2*%
%TO.N,Net-(D1-A)*%
X233426000Y-127000000D03*
%TD*%
%TO.P,MX58,1,1*%
%TO.N,Expander_COL1*%
X416052000Y-181610000D03*
%TO.P,MX58,2,2*%
%TO.N,Net-(D44-A)*%
X409702000Y-184150000D03*
%TD*%
D11*
%TO.P,D6,1,K*%
%TO.N,ROW0*%
X320675000Y-117729000D03*
D12*
%TO.P,D6,2,A*%
%TO.N,Net-(D6-A)*%
X330834999Y-117728999D03*
%TD*%
D10*
%TO.P,MX41,1,1*%
%TO.N,Expander_COL5*%
X468376000Y-124460000D03*
%TO.P,MX41,2,2*%
%TO.N,Net-(D61-A)*%
X462026000Y-127000000D03*
%TD*%
D11*
%TO.P,D16,1,K*%
%TO.N,ROW2*%
X247142000Y-112776000D03*
D12*
%TO.P,D16,2,A*%
%TO.N,Net-(D16-A)*%
X257301999Y-112775999D03*
%TD*%
D10*
%TO.P,MX15,1,1*%
%TO.N,COL0*%
X246888000Y-162560000D03*
%TO.P,MX15,2,2*%
%TO.N,Net-(D15-A)*%
X240538000Y-165100000D03*
%TD*%
%TO.P,MX39,1,1*%
%TO.N,Expander_COL3*%
X430276000Y-124460000D03*
%TO.P,MX39,2,2*%
%TO.N,Net-(D51-A)*%
X423926000Y-127000000D03*
%TD*%
%TO.P,MX12,1,1*%
%TO.N,COL4*%
X325628000Y-143510000D03*
%TO.P,MX12,2,2*%
%TO.N,Net-(D12-A)*%
X319278000Y-146050000D03*
%TD*%
D11*
%TO.P,R1,1*%
%TO.N,SDA*%
X192659000Y-198374000D03*
%TO.P,R1,2*%
%TO.N,VDD*%
X192659000Y-188214000D03*
%TD*%
D10*
%TO.P,MX6,1,1*%
%TO.N,COL5*%
X335026000Y-124460000D03*
%TO.P,MX6,2,2*%
%TO.N,Net-(D6-A)*%
X328676000Y-127000000D03*
%TD*%
D11*
%TO.P,D58,1,K*%
%TO.N,Net-(D38-K)*%
X434467000Y-112649000D03*
D12*
%TO.P,D58,2,A*%
%TO.N,Net-(D58-A)*%
X444626999Y-112648999D03*
%TD*%
D15*
%TO.P,SW1,1,1*%
%TO.N,GND*%
X185778000Y-110562000D03*
X192278000Y-110562000D03*
%TO.P,SW1,2,2*%
%TO.N,Net-(U1-RST)*%
X185778000Y-115062000D03*
X192278000Y-115062000D03*
%TD*%
D10*
%TO.P,MX38,1,1*%
%TO.N,Expander_COL2*%
X411226000Y-124460000D03*
%TO.P,MX38,2,2*%
%TO.N,Net-(D46-A)*%
X404876000Y-127000000D03*
%TD*%
D11*
%TO.P,D66,1,K*%
%TO.N,Net-(D36-K)*%
X471678000Y-117729000D03*
D12*
%TO.P,D66,2,A*%
%TO.N,Net-(D66-A)*%
X481837999Y-117728999D03*
%TD*%
D10*
%TO.P,MX13,1,1*%
%TO.N,COL5*%
X344678000Y-143510000D03*
%TO.P,MX13,2,2*%
%TO.N,Net-(D13-A)*%
X338328000Y-146050000D03*
%TD*%
D11*
%TO.P,D59,1,K*%
%TO.N,Net-(D39-K)*%
X434467000Y-110109000D03*
D12*
%TO.P,D59,2,A*%
%TO.N,Net-(D59-A)*%
X444626999Y-110108999D03*
%TD*%
D11*
%TO.P,R2,1*%
%TO.N,SCL*%
X195199000Y-198374000D03*
%TO.P,R2,2*%
%TO.N,VDD*%
X195199000Y-188214000D03*
%TD*%
%TO.P,D17,1,K*%
%TO.N,ROW2*%
X263652000Y-112649000D03*
D12*
%TO.P,D17,2,A*%
%TO.N,Net-(D17-A)*%
X273811999Y-112648999D03*
%TD*%
D10*
%TO.P,MX3,1,1*%
%TO.N,COL2*%
X277876000Y-124460000D03*
%TO.P,MX3,2,2*%
%TO.N,Net-(D3-A)*%
X271526000Y-127000000D03*
%TD*%
D11*
%TO.P,D30,1,K*%
%TO.N,ROW4*%
X247142000Y-107696000D03*
D12*
%TO.P,D30,2,A*%
%TO.N,Net-(D30-A)*%
X257301999Y-107695999D03*
%TD*%
D10*
%TO.P,MX31,1,1*%
%TO.N,COL2*%
X289814000Y-200660000D03*
%TO.P,MX31,2,2*%
%TO.N,Net-(D31-A)*%
X283464000Y-203200000D03*
%TD*%
D11*
%TO.P,D25,1,K*%
%TO.N,ROW3*%
X281940000Y-110109000D03*
D12*
%TO.P,D25,2,A*%
%TO.N,Net-(D25-A)*%
X292099999Y-110108999D03*
%TD*%
D11*
%TO.P,D42,1,K*%
%TO.N,Net-(D37-K)*%
X377063000Y-115189000D03*
D12*
%TO.P,D42,2,A*%
%TO.N,Net-(D42-A)*%
X387222999Y-115188999D03*
%TD*%
D11*
%TO.P,D14,1,K*%
%TO.N,ROW1*%
X338201000Y-115189000D03*
D12*
%TO.P,D14,2,A*%
%TO.N,Net-(D14-A)*%
X348360999Y-115188999D03*
%TD*%
D10*
%TO.P,MX5,1,1*%
%TO.N,COL4*%
X315976000Y-124460000D03*
%TO.P,MX5,2,2*%
%TO.N,Net-(D5-A)*%
X309626000Y-127000000D03*
%TD*%
D11*
%TO.P,D54,1,K*%
%TO.N,Net-(D39-K)*%
X414528000Y-110109000D03*
D12*
%TO.P,D54,2,A*%
%TO.N,Net-(D54-A)*%
X424687999Y-110108999D03*
%TD*%
D11*
%TO.P,D63,1,K*%
%TO.N,Net-(D38-K)*%
X454152000Y-112649000D03*
D12*
%TO.P,D63,2,A*%
%TO.N,Net-(D63-A)*%
X464311999Y-112648999D03*
%TD*%
D10*
%TO.P,MX59,1,1*%
%TO.N,Expander_COL2*%
X435102000Y-181610000D03*
%TO.P,MX59,2,2*%
%TO.N,Net-(D49-A)*%
X428752000Y-184150000D03*
%TD*%
D16*
%TO.P,U1,1,D3-TX*%
%TO.N,COL4*%
X198374000Y-105918000D03*
%TO.P,U1,2,D2-RX*%
%TO.N,unconnected-(U1-D2-RX-Pad2)*%
X198374000Y-108458000D03*
D17*
%TO.P,U1,3,GND*%
%TO.N,GND*%
X198374000Y-110998000D03*
%TO.P,U1,4,GND*%
X198374000Y-113538000D03*
D16*
%TO.P,U1,5,D1*%
%TO.N,SDA*%
X198374000Y-116078000D03*
%TO.P,U1,6,D0*%
%TO.N,SCL*%
X198374000Y-118618000D03*
%TO.P,U1,7,D4*%
%TO.N,ROW0*%
X198374000Y-121158000D03*
%TO.P,U1,8,C6*%
%TO.N,ROW1*%
X198374000Y-123698000D03*
%TO.P,U1,9,D7*%
%TO.N,ROW2*%
X198374000Y-126238000D03*
%TO.P,U1,10,E6*%
%TO.N,ROW3*%
X198374000Y-128778000D03*
%TO.P,U1,11,B4*%
%TO.N,ROW4*%
X198374000Y-131318000D03*
%TO.P,U1,12,B5*%
%TO.N,COL0*%
X198374000Y-133858000D03*
%TO.P,U1,13,B0*%
%TO.N,unconnected-(U1-B0-Pad13)*%
X213614000Y-105918000D03*
D17*
%TO.P,U1,14,GND*%
%TO.N,GND*%
X213614000Y-108458000D03*
D16*
%TO.P,U1,15,RST*%
%TO.N,Net-(U1-RST)*%
X213614000Y-110998000D03*
%TO.P,U1,16,VCC*%
%TO.N,VDD*%
X213614000Y-113538000D03*
%TO.P,U1,17,F4*%
%TO.N,unconnected-(U1-F4-Pad17)*%
X213614000Y-116078000D03*
%TO.P,U1,18,F5*%
%TO.N,Net-(U1-F5)*%
X213614000Y-118618000D03*
%TO.P,U1,19,F6*%
%TO.N,Net-(U1-F6)*%
X213614000Y-121158000D03*
%TO.P,U1,20,F7*%
%TO.N,COL6*%
X213614000Y-123698000D03*
%TO.P,U1,21,B1*%
%TO.N,COL5*%
X213614000Y-126238000D03*
%TO.P,U1,22,B3*%
%TO.N,COL3*%
X213614000Y-128778000D03*
%TO.P,U1,23,B2*%
%TO.N,COL2*%
X213614000Y-131318000D03*
%TO.P,U1,24,B6*%
%TO.N,COL1*%
X213614000Y-133858000D03*
%TD*%
D11*
%TO.P,D12,1,K*%
%TO.N,ROW1*%
X301752000Y-115189000D03*
D12*
%TO.P,D12,2,A*%
%TO.N,Net-(D12-A)*%
X311911999Y-115188999D03*
%TD*%
D11*
%TO.P,D61,1,K*%
%TO.N,Net-(D36-K)*%
X454152000Y-117729000D03*
D12*
%TO.P,D61,2,A*%
%TO.N,Net-(D61-A)*%
X464311999Y-117728999D03*
%TD*%
D11*
%TO.P,D34,1,K*%
%TO.N,ROW4*%
X320675000Y-107569000D03*
D12*
%TO.P,D34,2,A*%
%TO.N,Net-(D34-A)*%
X330834999Y-107568999D03*
%TD*%
D10*
%TO.P,MX40,1,1*%
%TO.N,Expander_COL4*%
X449326000Y-124460000D03*
%TO.P,MX40,2,2*%
%TO.N,Net-(D56-A)*%
X442976000Y-127000000D03*
%TD*%
D11*
%TO.P,D51,1,K*%
%TO.N,Net-(D36-K)*%
X414528000Y-117729000D03*
D12*
%TO.P,D51,2,A*%
%TO.N,Net-(D51-A)*%
X424687999Y-117728999D03*
%TD*%
D10*
%TO.P,MX20,1,1*%
%TO.N,COL5*%
X349250000Y-162560000D03*
%TO.P,MX20,2,2*%
%TO.N,Net-(D20-A)*%
X342900000Y-165100000D03*
%TD*%
D11*
%TO.P,D39,1,K*%
%TO.N,Net-(D39-K)*%
X358267000Y-110109000D03*
D12*
%TO.P,D39,2,A*%
%TO.N,Net-(D39-A)*%
X368426999Y-110108999D03*
%TD*%
D11*
%TO.P,D2,1,K*%
%TO.N,ROW0*%
X247142000Y-117856000D03*
D12*
%TO.P,D2,2,A*%
%TO.N,Net-(D2-A)*%
X257301999Y-117855999D03*
%TD*%
D11*
%TO.P,D48,1,K*%
%TO.N,Net-(D38-K)*%
X393065000Y-112649000D03*
D12*
%TO.P,D48,2,A*%
%TO.N,Net-(D48-A)*%
X403224999Y-112648999D03*
%TD*%
D11*
%TO.P,D53,1,K*%
%TO.N,Net-(D38-K)*%
X414528000Y-112649000D03*
D12*
%TO.P,D53,2,A*%
%TO.N,Net-(D53-A)*%
X424687999Y-112648999D03*
%TD*%
D11*
%TO.P,D47,1,K*%
%TO.N,Net-(D37-K)*%
X393065000Y-115189000D03*
D12*
%TO.P,D47,2,A*%
%TO.N,Net-(D47-A)*%
X403224999Y-115188999D03*
%TD*%
D11*
%TO.P,D10,1,K*%
%TO.N,ROW1*%
X263652000Y-115189000D03*
D12*
%TO.P,D10,2,A*%
%TO.N,Net-(D10-A)*%
X273811999Y-115188999D03*
%TD*%
D18*
%TO.P,SW2,*%
%TO.N,*%
X507209999Y-129651999D03*
X496009999Y-129651999D03*
D19*
%TO.P,SW2,A,A*%
%TO.N,Net-(U1-F6)*%
X504109999Y-122151999D03*
D15*
%TO.P,SW2,B,B*%
%TO.N,Net-(U1-F5)*%
X499110000Y-122152000D03*
%TO.P,SW2,C,C*%
%TO.N,GND*%
X501610000Y-122152000D03*
%TO.P,SW2,S1,S1*%
%TO.N,unconnected-(SW2-PadS1)*%
X499110000Y-136652000D03*
%TO.P,SW2,S2,S2*%
%TO.N,GND*%
X504110000Y-136652000D03*
%TD*%
D11*
%TO.P,D11,1,K*%
%TO.N,ROW1*%
X281940000Y-115189000D03*
D12*
%TO.P,D11,2,A*%
%TO.N,Net-(D11-A)*%
X292099999Y-115188999D03*
%TD*%
D10*
%TO.P,MX14,1,1*%
%TO.N,COL6*%
X363728000Y-143510000D03*
%TO.P,MX14,2,2*%
%TO.N,Net-(D14-A)*%
X357378000Y-146050000D03*
%TD*%
%TO.P,MX2,1,1*%
%TO.N,COL1*%
X258826000Y-124460000D03*
%TO.P,MX2,2,2*%
%TO.N,Net-(D2-A)*%
X252476000Y-127000000D03*
%TD*%
D11*
%TO.P,D37,1,K*%
%TO.N,Net-(D37-K)*%
X358267000Y-115189000D03*
D12*
%TO.P,D37,2,A*%
%TO.N,Net-(D37-A)*%
X368426999Y-115188999D03*
%TD*%
D10*
%TO.P,MX37,1,1*%
%TO.N,Expander_COL1*%
X392176000Y-124460000D03*
%TO.P,MX37,2,2*%
%TO.N,Net-(D41-A)*%
X385826000Y-127000000D03*
%TD*%
%TO.P,MX47,1,1*%
%TO.N,Expander_COL4*%
X458978000Y-143510000D03*
%TO.P,MX47,2,2*%
%TO.N,Net-(D57-A)*%
X452628000Y-146050000D03*
%TD*%
%TO.P,MX46,1,1*%
%TO.N,Expander_COL3*%
X439928000Y-143510000D03*
%TO.P,MX46,2,2*%
%TO.N,Net-(D52-A)*%
X433578000Y-146050000D03*
%TD*%
%TO.P,MX42,1,1*%
%TO.N,Expander_COL6*%
X487426000Y-124460000D03*
%TO.P,MX42,2,2*%
%TO.N,Net-(D66-A)*%
X481076000Y-127000000D03*
%TD*%
%TO.P,MX28,1,1*%
%TO.N,COL6*%
X377952000Y-181610000D03*
%TO.P,MX28,2,2*%
%TO.N,Net-(D28-A)*%
X371602000Y-184150000D03*
%TD*%
%TO.P,MX24,1,1*%
%TO.N,COL2*%
X301752000Y-181610000D03*
%TO.P,MX24,2,2*%
%TO.N,Net-(D24-A)*%
X295402000Y-184150000D03*
%TD*%
%TO.P,MX23,1,1*%
%TO.N,COL1*%
X282702000Y-181610000D03*
%TO.P,MX23,2,2*%
%TO.N,Net-(D23-A)*%
X276352000Y-184150000D03*
%TD*%
D11*
%TO.P,D21,1,K*%
%TO.N,ROW2*%
X338201000Y-112522000D03*
D12*
%TO.P,D21,2,A*%
%TO.N,Net-(D21-A)*%
X348360999Y-112521999D03*
%TD*%
D11*
%TO.P,D1,1,K*%
%TO.N,ROW0*%
X228473000Y-117856000D03*
D12*
%TO.P,D1,2,A*%
%TO.N,Net-(D1-A)*%
X238632999Y-117855999D03*
%TD*%
D10*
%TO.P,MX53,1,1*%
%TO.N,Expander_COL3*%
X444500000Y-162560000D03*
%TO.P,MX53,2,2*%
%TO.N,Net-(D53-A)*%
X438150000Y-165100000D03*
%TD*%
D11*
%TO.P,D43,1,K*%
%TO.N,Net-(D38-K)*%
X377063000Y-112649000D03*
D12*
%TO.P,D43,2,A*%
%TO.N,Net-(D43-A)*%
X387222999Y-112648999D03*
%TD*%
D10*
%TO.P,MX29,1,1*%
%TO.N,COL0*%
X242189000Y-200660000D03*
%TO.P,MX29,2,2*%
%TO.N,Net-(D29-A)*%
X235839000Y-203200000D03*
%TD*%
D11*
%TO.P,D3,1,K*%
%TO.N,ROW0*%
X263652000Y-117729000D03*
D12*
%TO.P,D3,2,A*%
%TO.N,Net-(D3-A)*%
X273811999Y-117728999D03*
%TD*%
D10*
%TO.P,MX35,1,1*%
%TO.N,COL6*%
X480441000Y-200660000D03*
%TO.P,MX35,2,2*%
%TO.N,Net-(D35-A)*%
X474091000Y-203200000D03*
%TD*%
D11*
%TO.P,D32,1,K*%
%TO.N,ROW4*%
X281940000Y-107569000D03*
D12*
%TO.P,D32,2,A*%
%TO.N,Net-(D32-A)*%
X292099999Y-107568999D03*
%TD*%
D10*
%TO.P,MX49,1,1*%
%TO.N,Expander_COL6*%
X501777000Y-143510000D03*
%TO.P,MX49,2,2*%
%TO.N,Net-(D67-A)*%
X495427000Y-146050000D03*
%TD*%
%TO.P,MX27,1,1*%
%TO.N,COL5*%
X358902000Y-181610000D03*
%TO.P,MX27,2,2*%
%TO.N,Net-(D27-A)*%
X352552000Y-184150000D03*
%TD*%
%TO.P,MX54,1,1*%
%TO.N,Expander_COL4*%
X463550000Y-162560000D03*
%TO.P,MX54,2,2*%
%TO.N,Net-(D58-A)*%
X457200000Y-165100000D03*
%TD*%
D11*
%TO.P,D22,1,K*%
%TO.N,ROW3*%
X228473000Y-110236000D03*
D12*
%TO.P,D22,2,A*%
%TO.N,Net-(D22-A)*%
X238632999Y-110235999D03*
%TD*%
D11*
%TO.P,D20,1,K*%
%TO.N,ROW2*%
X320675000Y-112649000D03*
D12*
%TO.P,D20,2,A*%
%TO.N,Net-(D20-A)*%
X330834999Y-112648999D03*
%TD*%
D10*
%TO.P,MX36,1,1*%
%TO.N,Expander_COL0*%
X373126000Y-124460000D03*
%TO.P,MX36,2,2*%
%TO.N,Net-(D36-A)*%
X366776000Y-127000000D03*
%TD*%
%TO.P,MX50,1,1*%
%TO.N,Expander_COL0*%
X387350000Y-162560000D03*
%TO.P,MX50,2,2*%
%TO.N,Net-(D38-A)*%
X381000000Y-165100000D03*
%TD*%
D11*
%TO.P,D62,1,K*%
%TO.N,Net-(D37-K)*%
X454152000Y-115189000D03*
D12*
%TO.P,D62,2,A*%
%TO.N,Net-(D62-A)*%
X464311999Y-115188999D03*
%TD*%
D11*
%TO.P,D52,1,K*%
%TO.N,Net-(D37-K)*%
X414528000Y-115189000D03*
D12*
%TO.P,D52,2,A*%
%TO.N,Net-(D52-A)*%
X424687999Y-115188999D03*
%TD*%
D10*
%TO.P,MX61,1,1*%
%TO.N,Expander_COL4*%
X489877000Y-181625000D03*
%TO.P,MX61,2,2*%
%TO.N,Net-(D59-A)*%
X483527000Y-184165000D03*
%TD*%
D11*
%TO.P,D24,1,K*%
%TO.N,ROW3*%
X263652000Y-110109000D03*
D12*
%TO.P,D24,2,A*%
%TO.N,Net-(D24-A)*%
X273811999Y-110108999D03*
%TD*%
D10*
%TO.P,MX17,1,1*%
%TO.N,COL2*%
X292100000Y-162560000D03*
%TO.P,MX17,2,2*%
%TO.N,Net-(D17-A)*%
X285750000Y-165100000D03*
%TD*%
D11*
%TO.P,D8,1,K*%
%TO.N,ROW1*%
X228473000Y-115316000D03*
D12*
%TO.P,D8,2,A*%
%TO.N,Net-(D8-A)*%
X238632999Y-115315999D03*
%TD*%
D11*
%TO.P,D68,1,K*%
%TO.N,Net-(D38-K)*%
X471678000Y-112649000D03*
D12*
%TO.P,D68,2,A*%
%TO.N,Net-(D68-A)*%
X481837999Y-112648999D03*
%TD*%
D11*
%TO.P,D57,1,K*%
%TO.N,Net-(D37-K)*%
X434467000Y-115189000D03*
D12*
%TO.P,D57,2,A*%
%TO.N,Net-(D57-A)*%
X444626999Y-115188999D03*
%TD*%
D10*
%TO.P,MX4,1,1*%
%TO.N,COL3*%
X296926000Y-124460000D03*
%TO.P,MX4,2,2*%
%TO.N,Net-(D4-A)*%
X290576000Y-127000000D03*
%TD*%
D11*
%TO.P,D19,1,K*%
%TO.N,ROW2*%
X301752000Y-112649000D03*
D12*
%TO.P,D19,2,A*%
%TO.N,Net-(D19-A)*%
X311911999Y-112648999D03*
%TD*%
D10*
%TO.P,MX30,1,1*%
%TO.N,COL1*%
X265938000Y-200660000D03*
%TO.P,MX30,2,2*%
%TO.N,Net-(D30-A)*%
X259588000Y-203200000D03*
%TD*%
D11*
%TO.P,D33,1,K*%
%TO.N,ROW4*%
X301752000Y-107696000D03*
D12*
%TO.P,D33,2,A*%
%TO.N,Net-(D33-A)*%
X311911999Y-107695999D03*
%TD*%
D11*
%TO.P,D23,1,K*%
%TO.N,ROW3*%
X247142000Y-110236000D03*
D12*
%TO.P,D23,2,A*%
%TO.N,Net-(D23-A)*%
X257301999Y-110235999D03*
%TD*%
D11*
%TO.P,D4,1,K*%
%TO.N,ROW0*%
X281940000Y-117729000D03*
D12*
%TO.P,D4,2,A*%
%TO.N,Net-(D4-A)*%
X292099999Y-117728999D03*
%TD*%
D11*
%TO.P,D56,1,K*%
%TO.N,Net-(D36-K)*%
X434467000Y-117729000D03*
D12*
%TO.P,D56,2,A*%
%TO.N,Net-(D56-A)*%
X444626999Y-117728999D03*
%TD*%
D10*
%TO.P,MX60,1,1*%
%TO.N,Expander_COL3*%
X454152000Y-181610000D03*
%TO.P,MX60,2,2*%
%TO.N,Net-(D54-A)*%
X447802000Y-184150000D03*
%TD*%
D11*
%TO.P,D28,1,K*%
%TO.N,ROW3*%
X338201000Y-109982000D03*
D12*
%TO.P,D28,2,A*%
%TO.N,Net-(D28-A)*%
X348360999Y-109981999D03*
%TD*%
D10*
%TO.P,MX33,1,1*%
%TO.N,COL4*%
X432689000Y-200660000D03*
%TO.P,MX33,2,2*%
%TO.N,Net-(D33-A)*%
X426339000Y-203200000D03*
%TD*%
D11*
%TO.P,D36,1,K*%
%TO.N,Net-(D36-K)*%
X358267000Y-117729000D03*
D12*
%TO.P,D36,2,A*%
%TO.N,Net-(D36-A)*%
X368426999Y-117728999D03*
%TD*%
D10*
%TO.P,MX10,1,1*%
%TO.N,COL2*%
X287528000Y-143510000D03*
%TO.P,MX10,2,2*%
%TO.N,Net-(D10-A)*%
X281178000Y-146050000D03*
%TD*%
%TO.P,MX16,1,1*%
%TO.N,COL1*%
X273050000Y-162560000D03*
%TO.P,MX16,2,2*%
%TO.N,Net-(D16-A)*%
X266700000Y-165100000D03*
%TD*%
%TO.P,MX43,1,1*%
%TO.N,Expander_COL0*%
X382778000Y-143510000D03*
%TO.P,MX43,2,2*%
%TO.N,Net-(D37-A)*%
X376428000Y-146050000D03*
%TD*%
D11*
%TO.P,D18,1,K*%
%TO.N,ROW2*%
X281940000Y-112649000D03*
D12*
%TO.P,D18,2,A*%
%TO.N,Net-(D18-A)*%
X292099999Y-112648999D03*
%TD*%
D10*
%TO.P,MX19,1,1*%
%TO.N,COL4*%
X330200000Y-162560000D03*
%TO.P,MX19,2,2*%
%TO.N,Net-(D19-A)*%
X323850000Y-165100000D03*
%TD*%
%TO.P,MX32,1,1*%
%TO.N,COL3*%
X361277000Y-200675000D03*
%TO.P,MX32,2,2*%
%TO.N,Net-(D32-A)*%
X354927000Y-203215000D03*
%TD*%
D11*
%TO.P,D35,1,K*%
%TO.N,ROW4*%
X338201000Y-107442000D03*
D12*
%TO.P,D35,2,A*%
%TO.N,Net-(D35-A)*%
X348360999Y-107441999D03*
%TD*%
D10*
%TO.P,MX7,1,1*%
%TO.N,COL6*%
X354076000Y-124460000D03*
%TO.P,MX7,2,2*%
%TO.N,Net-(D7-A)*%
X347726000Y-127000000D03*
%TD*%
D11*
%TO.P,D31,1,K*%
%TO.N,ROW4*%
X263652000Y-107569000D03*
D12*
%TO.P,D31,2,A*%
%TO.N,Net-(D31-A)*%
X273811999Y-107568999D03*
%TD*%
D10*
%TO.P,MX44,1,1*%
%TO.N,Expander_COL1*%
X401828000Y-143510000D03*
%TO.P,MX44,2,2*%
%TO.N,Net-(D42-A)*%
X395478000Y-146050000D03*
%TD*%
D20*
%TO.N,ROW0*%
X333248000Y-119507000D03*
X203454000Y-119888000D03*
X318008000Y-118999000D03*
%TO.N,ROW1*%
X333121000Y-115951000D03*
X316611000Y-116332000D03*
%TO.N,ROW2*%
X315468000Y-113919000D03*
%TO.N,ROW3*%
X314579000Y-112014000D03*
%TO.N,Net-(D34-A)*%
X334010000Y-114427000D03*
X422529000Y-183896000D03*
X419735000Y-178054000D03*
X334010000Y-109855000D03*
%TO.N,Net-(D36-K)*%
X350012000Y-148717000D03*
X360172000Y-130937000D03*
X351155000Y-144780000D03*
X219583000Y-158623000D03*
%TO.N,Net-(D37-K)*%
X350901000Y-149225000D03*
X220853000Y-159639000D03*
X361133046Y-130662415D03*
X352425000Y-144653000D03*
%TO.N,Net-(D38-K)*%
X361857546Y-131953000D03*
X351663000Y-150114000D03*
X221742000Y-160528000D03*
X353060000Y-145796000D03*
%TO.N,Net-(D39-K)*%
X356616000Y-152908000D03*
X362807500Y-134112000D03*
X361696000Y-152908000D03*
X223139000Y-160909000D03*
%TO.N,COL0*%
X224663000Y-136525000D03*
%TO.N,COL4*%
X217551000Y-141859000D03*
X201422000Y-109347000D03*
%TO.N,COL5*%
X325501000Y-121539000D03*
X317627000Y-121539000D03*
%TO.N,COL6*%
X317627000Y-120539497D03*
X334645000Y-120650000D03*
X325501000Y-120539497D03*
X342011000Y-120650000D03*
X351663000Y-125984000D03*
%TO.N,Expander_COL1*%
X389509000Y-189103000D03*
X415925000Y-191389000D03*
X393319000Y-191389000D03*
%TO.N,Expander_COL2*%
X387477000Y-177038000D03*
%TO.N,Expander_COL3*%
X383794000Y-172593000D03*
X386207000Y-170688000D03*
X404622000Y-172847000D03*
X399288000Y-172720000D03*
%TO.N,Expander_COL4*%
X391033000Y-160274000D03*
X374777000Y-163576000D03*
X386715000Y-160147000D03*
X374921432Y-160209862D03*
%TO.N,Expander_COL5*%
X373253000Y-159131000D03*
X390779000Y-157353000D03*
X373253000Y-164846000D03*
X385445000Y-159131000D03*
%TO.N,Expander_COL6*%
X383794000Y-156718000D03*
X390779000Y-156210000D03*
X362204000Y-154432000D03*
X358521000Y-155575000D03*
%TO.N,SDA*%
X192151000Y-122174000D03*
%TO.N,SCL*%
X192405000Y-125095000D03*
%TO.N,GND*%
X219964000Y-104394000D03*
X200787000Y-140843000D03*
%TO.N,Net-(U1-F6)*%
X223012000Y-105918000D03*
X493782701Y-117849299D03*
%TO.N,Net-(U1-F5)*%
X221742000Y-105156000D03*
%TD*%
D21*
%TO.N,ROW0*%
X318008000Y-118999000D02*
X319405000Y-118999000D01*
X223896812Y-117856000D02*
X221819812Y-119933000D01*
X223896812Y-117856000D02*
X228473000Y-117856000D01*
X336423000Y-119507000D02*
X338201000Y-117729000D01*
X203499000Y-119933000D02*
X203454000Y-119888000D01*
X319405000Y-118999000D02*
X320675000Y-117729000D01*
X333248000Y-119507000D02*
X336423000Y-119507000D01*
X221819812Y-119933000D02*
X203499000Y-119933000D01*
%TO.N,Net-(D1-A)*%
X233426000Y-123063000D02*
X238633000Y-117856000D01*
X233426000Y-127000000D02*
X233426000Y-123063000D01*
%TO.N,Net-(D2-A)*%
X252476000Y-127000000D02*
X252476000Y-122682000D01*
X252476000Y-122682000D02*
X257302000Y-117856000D01*
%TO.N,Net-(D3-A)*%
X273812000Y-120650000D02*
X273812000Y-117729000D01*
X271526000Y-122936000D02*
X273812000Y-120650000D01*
X271526000Y-127000000D02*
X271526000Y-122936000D01*
%TO.N,Net-(D4-A)*%
X292100000Y-125476000D02*
X290576000Y-127000000D01*
X292100000Y-117729000D02*
X292100000Y-125476000D01*
%TO.N,Net-(D5-A)*%
X311912000Y-124714000D02*
X309626000Y-127000000D01*
X311912000Y-117729000D02*
X311912000Y-124714000D01*
%TO.N,Net-(D6-A)*%
X330835000Y-117729000D02*
X330835000Y-124841000D01*
X330835000Y-124841000D02*
X328676000Y-127000000D01*
%TO.N,Net-(D7-A)*%
X349885000Y-124841000D02*
X349885000Y-123317000D01*
X349885000Y-123317000D02*
X348361000Y-121793000D01*
X348361000Y-121793000D02*
X348361000Y-117729000D01*
X347726000Y-127000000D02*
X349885000Y-124841000D01*
%TO.N,ROW1*%
X196977000Y-105283000D02*
X197993000Y-104267000D01*
X333121000Y-115951000D02*
X333883000Y-115189000D01*
X333883000Y-115189000D02*
X338201000Y-115189000D01*
X316611000Y-116332000D02*
X319532000Y-116332000D01*
X198374000Y-123698000D02*
X196977000Y-122301000D01*
X224917000Y-115316000D02*
X228473000Y-115316000D01*
X213868000Y-104267000D02*
X224917000Y-115316000D01*
X197993000Y-104267000D02*
X213868000Y-104267000D01*
X196977000Y-122301000D02*
X196977000Y-105283000D01*
X319532000Y-116332000D02*
X320675000Y-115189000D01*
%TO.N,Net-(D8-A)*%
X234569000Y-128651000D02*
X234569000Y-142367000D01*
X240030000Y-116713000D02*
X240030000Y-120396000D01*
X234569000Y-142367000D02*
X238252000Y-146050000D01*
X238633000Y-115316000D02*
X240030000Y-116713000D01*
X235204000Y-128016000D02*
X234569000Y-128651000D01*
X235204000Y-125222000D02*
X235204000Y-128016000D01*
X240030000Y-120396000D02*
X235204000Y-125222000D01*
%TO.N,Net-(D9-A)*%
X253911000Y-137833000D02*
X253911000Y-123787000D01*
X260096000Y-116713000D02*
X258699000Y-115316000D01*
X262128000Y-146050000D02*
X253911000Y-137833000D01*
X260096000Y-117602000D02*
X260096000Y-116713000D01*
X253911000Y-123787000D02*
X260096000Y-117602000D01*
X258699000Y-115316000D02*
X257302000Y-115316000D01*
%TO.N,Net-(D10-A)*%
X272669000Y-134239000D02*
X281178000Y-142748000D01*
X273812000Y-115189000D02*
X274962500Y-116339500D01*
X281178000Y-142748000D02*
X281178000Y-146050000D01*
X274962500Y-126538755D02*
X272669000Y-128832255D01*
X272669000Y-128832255D02*
X272669000Y-134239000D01*
X274962500Y-116339500D02*
X274962500Y-126538755D01*
%TO.N,Net-(D11-A)*%
X291973000Y-137795000D02*
X300228000Y-146050000D01*
X292100000Y-115189000D02*
X293250500Y-116339500D01*
X293250500Y-127316743D02*
X291973000Y-128594243D01*
X293250500Y-116339500D02*
X293250500Y-127316743D01*
X291973000Y-128594243D02*
X291973000Y-137795000D01*
%TO.N,Net-(D12-A)*%
X313062500Y-126484500D02*
X310769000Y-128778000D01*
X310769000Y-133858000D02*
X319278000Y-142367000D01*
X311912000Y-115189000D02*
X313062500Y-116339500D01*
X313062500Y-116339500D02*
X313062500Y-126484500D01*
X319278000Y-142367000D02*
X319278000Y-146050000D01*
X310769000Y-128778000D02*
X310769000Y-133858000D01*
%TO.N,Net-(D13-A)*%
X331985500Y-126681743D02*
X330073000Y-128594243D01*
X330073000Y-137795000D02*
X338328000Y-146050000D01*
X330073000Y-128594243D02*
X330073000Y-137795000D01*
X330835000Y-115189000D02*
X331985500Y-116339500D01*
X331985500Y-116339500D02*
X331985500Y-126681743D01*
%TO.N,Net-(D14-A)*%
X349123000Y-128594243D02*
X349123000Y-137795000D01*
X350335000Y-127382243D02*
X349123000Y-128594243D01*
X348361000Y-115189000D02*
X350335000Y-117163000D01*
X350335000Y-117163000D02*
X350335000Y-127382243D01*
X349123000Y-137795000D02*
X357378000Y-146050000D01*
%TO.N,ROW2*%
X315468000Y-113919000D02*
X319405000Y-113919000D01*
X214387000Y-103770000D02*
X223393000Y-112776000D01*
X319405000Y-113919000D02*
X320675000Y-112649000D01*
X223393000Y-112776000D02*
X228473000Y-112776000D01*
X196480000Y-124344000D02*
X196480000Y-104764000D01*
X197474000Y-103770000D02*
X214387000Y-103770000D01*
X198374000Y-126238000D02*
X196480000Y-124344000D01*
X196480000Y-104764000D02*
X197474000Y-103770000D01*
%TO.N,Net-(D15-A)*%
X230632000Y-159893000D02*
X235839000Y-165100000D01*
X230632000Y-124333000D02*
X233299000Y-121666000D01*
X233299000Y-121666000D02*
X233299000Y-115062000D01*
X235839000Y-165100000D02*
X240538000Y-165100000D01*
X235585000Y-112776000D02*
X238633000Y-112776000D01*
X233299000Y-115062000D02*
X235585000Y-112776000D01*
X230632000Y-124333000D02*
X230632000Y-159893000D01*
%TO.N,Net-(D16-A)*%
X255397000Y-118872000D02*
X249301000Y-124968000D01*
X249301000Y-134874000D02*
X259207000Y-144780000D01*
X249301000Y-124968000D02*
X249301000Y-134874000D01*
X255397000Y-114681000D02*
X255397000Y-118872000D01*
X257302000Y-112776000D02*
X255397000Y-114681000D01*
X259207000Y-157607000D02*
X266700000Y-165100000D01*
X259207000Y-144780000D02*
X259207000Y-157607000D01*
%TO.N,Net-(D17-A)*%
X278384000Y-142113000D02*
X278384000Y-157734000D01*
X278384000Y-157734000D02*
X285750000Y-165100000D01*
X267716000Y-131445000D02*
X278384000Y-142113000D01*
X267716000Y-125603000D02*
X267716000Y-131445000D01*
X272661500Y-113799500D02*
X272661500Y-120657500D01*
X273812000Y-112649000D02*
X272661500Y-113799500D01*
X272661500Y-120657500D02*
X267716000Y-125603000D01*
%TO.N,Net-(D18-A)*%
X287782000Y-116967000D02*
X287782000Y-136271000D01*
X287782000Y-136271000D02*
X297434000Y-145923000D01*
X297434000Y-145923000D02*
X297434000Y-149606000D01*
X297434000Y-149606000D02*
X304800000Y-156972000D01*
X292100000Y-112649000D02*
X287782000Y-116967000D01*
X304800000Y-156972000D02*
X304800000Y-165100000D01*
%TO.N,Net-(D19-A)*%
X311912000Y-112649000D02*
X310134000Y-114427000D01*
X316484000Y-145542000D02*
X316484000Y-157734000D01*
X310134000Y-114427000D02*
X310134000Y-123952000D01*
X306832000Y-135890000D02*
X316484000Y-145542000D01*
X310134000Y-123952000D02*
X306832000Y-127254000D01*
X306832000Y-127254000D02*
X306832000Y-135890000D01*
X316484000Y-157734000D02*
X323850000Y-165100000D01*
%TO.N,Net-(D20-A)*%
X335407000Y-145923000D02*
X335407000Y-157607000D01*
X325755000Y-136271000D02*
X335407000Y-145923000D01*
X329684500Y-113799500D02*
X329684500Y-123705500D01*
X325755000Y-127635000D02*
X325755000Y-136271000D01*
X329684500Y-123705500D02*
X325755000Y-127635000D01*
X330835000Y-112649000D02*
X329684500Y-113799500D01*
X335407000Y-157607000D02*
X342900000Y-165100000D01*
%TO.N,Net-(D21-A)*%
X345186000Y-115697000D02*
X345186000Y-135128000D01*
X345186000Y-135128000D02*
X354584000Y-144526000D01*
X354584000Y-157734000D02*
X361950000Y-165100000D01*
X348361000Y-112522000D02*
X345186000Y-115697000D01*
X354584000Y-144526000D02*
X354584000Y-157734000D01*
%TO.N,ROW3*%
X222250000Y-110236000D02*
X228473000Y-110236000D01*
X318770000Y-112014000D02*
X320675000Y-110109000D01*
X196030000Y-104198000D02*
X196908000Y-103320000D01*
X196030000Y-126434000D02*
X196030000Y-104198000D01*
X215334000Y-103320000D02*
X222250000Y-110236000D01*
X196908000Y-103320000D02*
X215334000Y-103320000D01*
X198374000Y-128778000D02*
X196030000Y-126434000D01*
X314579000Y-112014000D02*
X318770000Y-112014000D01*
%TO.N,Net-(D22-A)*%
X232664000Y-120777000D02*
X232664000Y-114554000D01*
X230182000Y-169021000D02*
X245326000Y-184165000D01*
X230182000Y-123259000D02*
X230182000Y-169021000D01*
X230182000Y-123259000D02*
X232664000Y-120777000D01*
X232664000Y-114554000D02*
X236982000Y-110236000D01*
X236982000Y-110236000D02*
X238633000Y-110236000D01*
%TO.N,ROW4*%
X195580000Y-128524000D02*
X195580000Y-103632000D01*
X222240695Y-107696000D02*
X228473000Y-107696000D01*
X195580000Y-103632000D02*
X196342000Y-102870000D01*
X196342000Y-102870000D02*
X217414695Y-102870000D01*
X217414695Y-102870000D02*
X222240695Y-107696000D01*
X198374000Y-131318000D02*
X195580000Y-128524000D01*
%TO.N,Net-(D23-A)*%
X248666000Y-135255000D02*
X258572000Y-145161000D01*
X254634302Y-112903698D02*
X254634302Y-118998302D01*
X258572000Y-145161000D02*
X258572000Y-163195000D01*
X248666000Y-124966604D02*
X248666000Y-135255000D01*
X257302000Y-110236000D02*
X254634302Y-112903698D01*
X254634302Y-118998302D02*
X248666000Y-124966604D01*
X258572000Y-163195000D02*
X276352000Y-180975000D01*
X276352000Y-180975000D02*
X276352000Y-184150000D01*
%TO.N,Net-(D24-A)*%
X277622000Y-142240000D02*
X277622000Y-158369000D01*
X271907000Y-112014000D02*
X271907000Y-120523000D01*
X277622000Y-158369000D02*
X282829000Y-163576000D01*
X291338000Y-178816000D02*
X294005000Y-178816000D01*
X273812000Y-110109000D02*
X271907000Y-112014000D01*
X266954000Y-125476000D02*
X266954000Y-131572000D01*
X266954000Y-131572000D02*
X277622000Y-142240000D01*
X294005000Y-178816000D02*
X295402000Y-180213000D01*
X295402000Y-180213000D02*
X295402000Y-184150000D01*
X282829000Y-163576000D02*
X282829000Y-170307000D01*
X282829000Y-170307000D02*
X291338000Y-178816000D01*
X271907000Y-120523000D02*
X266954000Y-125476000D01*
%TO.N,Net-(D25-A)*%
X296545000Y-149353396D02*
X302006000Y-154814396D01*
X290830000Y-112903000D02*
X286766000Y-116967000D01*
X286766000Y-116967000D02*
X286766000Y-136398000D01*
X292100000Y-110109000D02*
X290830000Y-111379000D01*
X290830000Y-111379000D02*
X290830000Y-112903000D01*
X296545000Y-146177000D02*
X296545000Y-149353396D01*
X302006000Y-154814396D02*
X302006000Y-171704000D01*
X286766000Y-136398000D02*
X296545000Y-146177000D01*
X302006000Y-171704000D02*
X314452000Y-184150000D01*
%TO.N,Net-(D26-A)*%
X311912000Y-110109000D02*
X309626000Y-112395000D01*
X306070000Y-127254000D02*
X306070000Y-136525000D01*
X315849000Y-159258000D02*
X320929000Y-164338000D01*
X309626000Y-123698000D02*
X306070000Y-127254000D01*
X315849000Y-146304000D02*
X315849000Y-159258000D01*
X309626000Y-112395000D02*
X309626000Y-123698000D01*
X320929000Y-171577000D02*
X333502000Y-184150000D01*
X306070000Y-136525000D02*
X315849000Y-146304000D01*
X320929000Y-164338000D02*
X320929000Y-171577000D01*
%TO.N,Net-(D27-A)*%
X339852000Y-171450000D02*
X352552000Y-184150000D01*
X329057000Y-111887000D02*
X329057000Y-123190000D01*
X325247000Y-127000000D02*
X325247000Y-136906000D01*
X334957000Y-158681000D02*
X339852000Y-163576000D01*
X325247000Y-136906000D02*
X334957000Y-146616000D01*
X339852000Y-163576000D02*
X339852000Y-171450000D01*
X329057000Y-123190000D02*
X325247000Y-127000000D01*
X330835000Y-110109000D02*
X329057000Y-111887000D01*
X334957000Y-146616000D02*
X334957000Y-158681000D01*
%TO.N,Net-(D28-A)*%
X348361000Y-109982000D02*
X344736000Y-113607000D01*
X359283000Y-171831000D02*
X371602000Y-184150000D01*
X359283000Y-164338000D02*
X359283000Y-171831000D01*
X353949000Y-144780000D02*
X353949000Y-159004000D01*
X353949000Y-159004000D02*
X359283000Y-164338000D01*
X344736000Y-135567000D02*
X353949000Y-144780000D01*
X344736000Y-113607000D02*
X344736000Y-135567000D01*
%TO.N,Net-(D29-A)*%
X231902000Y-114427000D02*
X238633000Y-107696000D01*
X229732000Y-121042000D02*
X231902000Y-118872000D01*
X235839000Y-203200000D02*
X229732000Y-197093000D01*
X231902000Y-118872000D02*
X231902000Y-114427000D01*
X229732000Y-197093000D02*
X229732000Y-121042000D01*
%TO.N,Net-(D30-A)*%
X272161000Y-190627000D02*
X259588000Y-203200000D01*
X248031000Y-124587000D02*
X248031000Y-135509000D01*
X257937000Y-145415000D02*
X257937000Y-164973000D01*
X254000000Y-110998000D02*
X254000000Y-118618000D01*
X254000000Y-118618000D02*
X248031000Y-124587000D01*
X248031000Y-135509000D02*
X257937000Y-145415000D01*
X272161000Y-179197000D02*
X272161000Y-190627000D01*
X257937000Y-164973000D02*
X272161000Y-179197000D01*
X257302000Y-107696000D02*
X254000000Y-110998000D01*
%TO.N,Net-(D31-A)*%
X266504000Y-124783000D02*
X266504000Y-132080000D01*
X277172000Y-142748000D02*
X277172000Y-158808000D01*
X282321000Y-163957000D02*
X282321000Y-170815000D01*
X291211000Y-195453000D02*
X283464000Y-203200000D01*
X271272000Y-120015000D02*
X266504000Y-124783000D01*
X291211000Y-179705000D02*
X291211000Y-195453000D01*
X266504000Y-132080000D02*
X277172000Y-142748000D01*
X277172000Y-158808000D02*
X282321000Y-163957000D01*
X282321000Y-170815000D02*
X291211000Y-179705000D01*
X273812000Y-107569000D02*
X271272000Y-110109000D01*
X271272000Y-110109000D02*
X271272000Y-120015000D01*
%TO.N,Net-(D32-A)*%
X327974588Y-203215000D02*
X354927000Y-203215000D01*
X286258000Y-113411000D02*
X286258000Y-136652000D01*
X311277000Y-187706000D02*
X312039000Y-188468000D01*
X286258000Y-136652000D02*
X296037000Y-146431000D01*
X301371000Y-174117000D02*
X311277000Y-184023000D01*
X296037000Y-146431000D02*
X296037000Y-150114000D01*
X301371000Y-155448000D02*
X301371000Y-174117000D01*
X313227588Y-188468000D02*
X327974588Y-203215000D01*
X292100000Y-107569000D02*
X286258000Y-113411000D01*
X296037000Y-150114000D02*
X301371000Y-155448000D01*
X312039000Y-188468000D02*
X313227588Y-188468000D01*
X311277000Y-184023000D02*
X311277000Y-187706000D01*
%TO.N,Net-(D34-A)*%
X422529000Y-180848000D02*
X422529000Y-183896000D01*
X334010000Y-109855000D02*
X334010000Y-114427000D01*
X419735000Y-178054000D02*
X422529000Y-180848000D01*
%TO.N,Net-(D36-K)*%
X202311000Y-166619812D02*
X210307812Y-158623000D01*
X210307812Y-158623000D02*
X218948000Y-158623000D01*
X351155000Y-147574000D02*
X351155000Y-144780000D01*
X358267000Y-129032000D02*
X358267000Y-117729000D01*
X218948000Y-158623000D02*
X219583000Y-158623000D01*
X202311000Y-167513000D02*
X202311000Y-166619812D01*
X360172000Y-130937000D02*
X358267000Y-129032000D01*
X350012000Y-148717000D02*
X351155000Y-147574000D01*
%TO.N,Net-(D36-A)*%
X368427000Y-117729000D02*
X368427000Y-125349000D01*
X368427000Y-125349000D02*
X366776000Y-127000000D01*
%TO.N,Net-(D37-K)*%
X219075000Y-159639000D02*
X220853000Y-159639000D01*
X209928208Y-159639000D02*
X219075000Y-159639000D01*
X361133046Y-118055046D02*
X358267000Y-115189000D01*
X361133046Y-130662415D02*
X361133046Y-118055046D01*
X352425000Y-144653000D02*
X352171000Y-144907000D01*
X352171000Y-147955000D02*
X350901000Y-149225000D01*
X206872000Y-165492000D02*
X206872000Y-162695208D01*
X352171000Y-144907000D02*
X352171000Y-147955000D01*
X206872000Y-162695208D02*
X209928208Y-159639000D01*
X202311000Y-170053000D02*
X206872000Y-165492000D01*
%TO.N,Net-(D37-A)*%
X369824000Y-126619000D02*
X368211000Y-128232000D01*
X369824000Y-116586000D02*
X369824000Y-126619000D01*
X368211000Y-137833000D02*
X376428000Y-146050000D01*
X368427000Y-115189000D02*
X369824000Y-116586000D01*
X368211000Y-128232000D02*
X368211000Y-137833000D01*
%TO.N,Net-(D38-K)*%
X351663000Y-150114000D02*
X353060000Y-148717000D01*
X207322000Y-167582000D02*
X207322000Y-162881604D01*
X353060000Y-148717000D02*
X353060000Y-145796000D01*
X207322000Y-162881604D02*
X209675604Y-160528000D01*
X361857546Y-116239546D02*
X358267000Y-112649000D01*
X209675604Y-160528000D02*
X219075000Y-160528000D01*
X202311000Y-172593000D02*
X207322000Y-167582000D01*
X219075000Y-160528000D02*
X221742000Y-160528000D01*
X361857546Y-131953000D02*
X361857546Y-116239546D01*
%TO.N,Net-(D38-A)*%
X373634000Y-155448000D02*
X381000000Y-162814000D01*
X373634000Y-146177000D02*
X373634000Y-155448000D01*
X363982000Y-117094000D02*
X363982000Y-136525000D01*
X381000000Y-162814000D02*
X381000000Y-165100000D01*
X368427000Y-112649000D02*
X363982000Y-117094000D01*
X363982000Y-136525000D02*
X373634000Y-146177000D01*
%TO.N,Net-(D39-K)*%
X356616000Y-152908000D02*
X361696000Y-152908000D01*
X202311000Y-175133000D02*
X207772000Y-169672000D01*
X207772000Y-169672000D02*
X207772000Y-163068000D01*
X207772000Y-163068000D02*
X209587000Y-161253000D01*
X362807500Y-114649500D02*
X358267000Y-110109000D01*
X362807500Y-134112000D02*
X362807500Y-114649500D01*
X222795000Y-161253000D02*
X223139000Y-160909000D01*
X209587000Y-161253000D02*
X222795000Y-161253000D01*
%TO.N,Net-(D39-A)*%
X363532000Y-137091000D02*
X373184000Y-146743000D01*
X378333000Y-171831000D02*
X390652000Y-184150000D01*
X378333000Y-162052000D02*
X378333000Y-171831000D01*
X373184000Y-156903000D02*
X378333000Y-162052000D01*
X363532000Y-115004000D02*
X363532000Y-137091000D01*
X373184000Y-146743000D02*
X373184000Y-156903000D01*
X368427000Y-110109000D02*
X363532000Y-115004000D01*
%TO.N,Net-(D41-A)*%
X387223000Y-125603000D02*
X385826000Y-127000000D01*
X387223000Y-117729000D02*
X387223000Y-125603000D01*
%TO.N,Net-(D42-A)*%
X387223000Y-115189000D02*
X388373500Y-116339500D01*
X388373500Y-116339500D02*
X388373500Y-127443743D01*
X388373500Y-127443743D02*
X387223000Y-128594243D01*
X387223000Y-137795000D02*
X395478000Y-146050000D01*
X387223000Y-128594243D02*
X387223000Y-137795000D01*
%TO.N,Net-(D43-A)*%
X382905000Y-139019412D02*
X392557000Y-148671412D01*
X392557000Y-157607000D02*
X400050000Y-165100000D01*
X382905000Y-115891500D02*
X382905000Y-139019412D01*
X387223000Y-112649000D02*
X386147500Y-112649000D01*
X392557000Y-148671412D02*
X392557000Y-157607000D01*
X386147500Y-112649000D02*
X382905000Y-115891500D01*
%TO.N,Net-(D44-A)*%
X382143000Y-115189000D02*
X382143000Y-139827000D01*
X392049000Y-149733000D02*
X392049000Y-159512000D01*
X406908000Y-184150000D02*
X409702000Y-184150000D01*
X382143000Y-139827000D02*
X392049000Y-149733000D01*
X387223000Y-110109000D02*
X382143000Y-115189000D01*
X397129000Y-164592000D02*
X397129000Y-174371000D01*
X392049000Y-159512000D02*
X397129000Y-164592000D01*
X397129000Y-174371000D02*
X406908000Y-184150000D01*
%TO.N,Net-(D46-A)*%
X403225000Y-125349000D02*
X404876000Y-127000000D01*
X403225000Y-117729000D02*
X403225000Y-125349000D01*
%TO.N,Net-(D47-A)*%
X406301000Y-118265000D02*
X406301000Y-137823000D01*
X403225000Y-115189000D02*
X406301000Y-118265000D01*
X406301000Y-137823000D02*
X414528000Y-146050000D01*
%TO.N,Net-(D48-A)*%
X411734000Y-146939000D02*
X411734000Y-157734000D01*
X402074500Y-113799500D02*
X402074500Y-137279500D01*
X402074500Y-137279500D02*
X411734000Y-146939000D01*
X411734000Y-157734000D02*
X419100000Y-165100000D01*
X403225000Y-112649000D02*
X402074500Y-113799500D01*
%TO.N,Net-(D49-A)*%
X403225000Y-110109000D02*
X401447000Y-111887000D01*
X416306000Y-164211000D02*
X416306000Y-171704000D01*
X411284000Y-159189000D02*
X416306000Y-164211000D01*
X401447000Y-138430000D02*
X411284000Y-148267000D01*
X411284000Y-148267000D02*
X411284000Y-159189000D01*
X416306000Y-171704000D02*
X428752000Y-184150000D01*
X401447000Y-111887000D02*
X401447000Y-138430000D01*
%TO.N,Net-(D51-A)*%
X424688000Y-117729000D02*
X424688000Y-126238000D01*
X424688000Y-126238000D02*
X423926000Y-127000000D01*
%TO.N,Net-(D52-A)*%
X424688000Y-115189000D02*
X425838500Y-116339500D01*
X425069000Y-137541000D02*
X433578000Y-146050000D01*
X425838500Y-128089912D02*
X425069000Y-128859412D01*
X425838500Y-116339500D02*
X425838500Y-128089912D01*
X425069000Y-128859412D02*
X425069000Y-137541000D01*
%TO.N,Net-(D53-A)*%
X430784000Y-148798412D02*
X430784000Y-157734000D01*
X430784000Y-157734000D02*
X438150000Y-165100000D01*
X421005000Y-116332000D02*
X421005000Y-139019412D01*
X421005000Y-139019412D02*
X430784000Y-148798412D01*
X424688000Y-112649000D02*
X421005000Y-116332000D01*
%TO.N,Net-(D54-A)*%
X424688000Y-110109000D02*
X420497000Y-114300000D01*
X435356000Y-171704000D02*
X447802000Y-184150000D01*
X420497000Y-114300000D02*
X420497000Y-140208000D01*
X420497000Y-140208000D02*
X429641000Y-149352000D01*
X429641000Y-149352000D02*
X429641000Y-159512000D01*
X435356000Y-165227000D02*
X435356000Y-171704000D01*
X429641000Y-159512000D02*
X435356000Y-165227000D01*
%TO.N,Net-(D56-A)*%
X444627000Y-125349000D02*
X442976000Y-127000000D01*
X444627000Y-117729000D02*
X444627000Y-125349000D01*
%TO.N,Net-(D57-A)*%
X445777500Y-116339500D02*
X445777500Y-127189743D01*
X444373000Y-128594243D02*
X444373000Y-137795000D01*
X444373000Y-137795000D02*
X452628000Y-146050000D01*
X444627000Y-115189000D02*
X445777500Y-116339500D01*
X445777500Y-127189743D02*
X444373000Y-128594243D01*
%TO.N,Net-(D58-A)*%
X440182000Y-117094000D02*
X440182000Y-137414000D01*
X444627000Y-112649000D02*
X440182000Y-117094000D01*
X440182000Y-137414000D02*
X449834000Y-147066000D01*
X449834000Y-157734000D02*
X457200000Y-165100000D01*
X449834000Y-147066000D02*
X449834000Y-157734000D01*
%TO.N,Net-(D59-A)*%
X439732000Y-137980000D02*
X449199000Y-147447000D01*
X439732000Y-115004000D02*
X439732000Y-137980000D01*
X444627000Y-110109000D02*
X439732000Y-115004000D01*
X449199000Y-147447000D02*
X449199000Y-164846000D01*
X449199000Y-164846000D02*
X468518000Y-184165000D01*
X468518000Y-184165000D02*
X483527000Y-184165000D01*
%TO.N,Net-(D61-A)*%
X464312000Y-124714000D02*
X462026000Y-127000000D01*
X464312000Y-117729000D02*
X464312000Y-124714000D01*
%TO.N,Net-(D62-A)*%
X463423000Y-137795000D02*
X471678000Y-146050000D01*
X463423000Y-128578255D02*
X463423000Y-137795000D01*
X465462500Y-126538755D02*
X463423000Y-128578255D01*
X464312000Y-115189000D02*
X465462500Y-116339500D01*
X465462500Y-116339500D02*
X465462500Y-126538755D01*
%TO.N,Net-(D63-A)*%
X468757000Y-147066000D02*
X468757000Y-154051000D01*
X479821000Y-165115000D02*
X488150000Y-165115000D01*
X459531000Y-117430000D02*
X459531000Y-137840000D01*
X459531000Y-137840000D02*
X468757000Y-147066000D01*
X468757000Y-154051000D02*
X479821000Y-165115000D01*
X464312000Y-112649000D02*
X459531000Y-117430000D01*
%TO.N,Net-(D64-A)*%
X494284000Y-180721000D02*
X494284000Y-199644000D01*
X467995000Y-148336000D02*
X467995000Y-154432000D01*
X467995000Y-154432000D02*
X494284000Y-180721000D01*
X464312000Y-110109000D02*
X458343000Y-116078000D01*
X458343000Y-116078000D02*
X458343000Y-138684000D01*
X458343000Y-138684000D02*
X467995000Y-148336000D01*
X494284000Y-199644000D02*
X497840000Y-203200000D01*
%TO.N,Net-(D66-A)*%
X481838000Y-117729000D02*
X481838000Y-118290000D01*
X481076000Y-127000000D02*
X481076000Y-118491000D01*
X481076000Y-118491000D02*
X481838000Y-117729000D01*
%TO.N,Net-(D67-A)*%
X488188000Y-133350000D02*
X488741000Y-133903000D01*
X481838000Y-115189000D02*
X486001000Y-119352000D01*
X488188000Y-128905000D02*
X488188000Y-133350000D01*
X488741000Y-139364000D02*
X495427000Y-146050000D01*
X486001000Y-119352000D02*
X486001000Y-126718000D01*
X486001000Y-126718000D02*
X488188000Y-128905000D01*
X488741000Y-133903000D02*
X488741000Y-139364000D01*
%TO.N,COL0*%
X246888000Y-176837000D02*
X251676000Y-181625000D01*
X244602000Y-160274000D02*
X246888000Y-162560000D01*
X201422000Y-142621000D02*
X198374000Y-139573000D01*
X198374000Y-139573000D02*
X198374000Y-133858000D01*
X224663000Y-142367000D02*
X224409000Y-142621000D01*
X246888000Y-162560000D02*
X246888000Y-176837000D01*
X242189000Y-200660000D02*
X251676000Y-191173000D01*
X244602000Y-143510000D02*
X244602000Y-160274000D01*
X224409000Y-142621000D02*
X201422000Y-142621000D01*
X239776000Y-124460000D02*
X239776000Y-138684000D01*
X224663000Y-136525000D02*
X224663000Y-142367000D01*
X251676000Y-191173000D02*
X251676000Y-181625000D01*
X239776000Y-138684000D02*
X244602000Y-143510000D01*
%TO.N,COL1*%
X269550757Y-200660000D02*
X265938000Y-200660000D01*
X282702000Y-187508757D02*
X269550757Y-200660000D01*
X273050000Y-171958000D02*
X282702000Y-181610000D01*
X268478000Y-157988000D02*
X273050000Y-162560000D01*
X258826000Y-124460000D02*
X258826000Y-133858000D01*
X273050000Y-162560000D02*
X273050000Y-171958000D01*
X258826000Y-133858000D02*
X268478000Y-143510000D01*
X268478000Y-143510000D02*
X268478000Y-157988000D01*
X282702000Y-181610000D02*
X282702000Y-187508757D01*
%TO.N,COL2*%
X287528000Y-157988000D02*
X292100000Y-162560000D01*
X292100000Y-171958000D02*
X301752000Y-181610000D01*
X277876000Y-133858000D02*
X287528000Y-143510000D01*
X289814000Y-200660000D02*
X301752000Y-188722000D01*
X292100000Y-162560000D02*
X292100000Y-171958000D01*
X287528000Y-143510000D02*
X287528000Y-157988000D01*
X301752000Y-188722000D02*
X301752000Y-181610000D01*
X277876000Y-124460000D02*
X277876000Y-133858000D01*
%TO.N,COL3*%
X311150000Y-171958000D02*
X320802000Y-181610000D01*
X327294000Y-200675000D02*
X361277000Y-200675000D01*
X320802000Y-194183000D02*
X327294000Y-200675000D01*
X296926000Y-133858000D02*
X306578000Y-143510000D01*
X320802000Y-181610000D02*
X320802000Y-194183000D01*
X306578000Y-143510000D02*
X306578000Y-157988000D01*
X296926000Y-124460000D02*
X296926000Y-133858000D01*
X306578000Y-157988000D02*
X311150000Y-162560000D01*
X311150000Y-162560000D02*
X311150000Y-171958000D01*
%TO.N,COL4*%
X201422000Y-138938000D02*
X204216000Y-141732000D01*
X204216000Y-141732000D02*
X217424000Y-141732000D01*
X404114000Y-200660000D02*
X432689000Y-200660000D01*
X325628000Y-157988000D02*
X330200000Y-162560000D01*
X315976000Y-133858000D02*
X325628000Y-143510000D01*
X325628000Y-143510000D02*
X325628000Y-157988000D01*
X402704000Y-199250000D02*
X404114000Y-200660000D01*
X339852000Y-181610000D02*
X357492000Y-199250000D01*
X315976000Y-124460000D02*
X315976000Y-133858000D01*
X330200000Y-171958000D02*
X339852000Y-181610000D01*
X201422000Y-109347000D02*
X201422000Y-138938000D01*
X357492000Y-199250000D02*
X402704000Y-199250000D01*
X330200000Y-162560000D02*
X330200000Y-171958000D01*
X217424000Y-141732000D02*
X217551000Y-141859000D01*
%TO.N,COL5*%
X317627000Y-121539000D02*
X325501000Y-121539000D01*
X374147000Y-196855000D02*
X452760000Y-196855000D01*
X349250000Y-176530000D02*
X354330000Y-181610000D01*
X344678000Y-143510000D02*
X344678000Y-157988000D01*
X452760000Y-196855000D02*
X456565000Y-200660000D01*
X349250000Y-162560000D02*
X349250000Y-176530000D01*
X354330000Y-181610000D02*
X358902000Y-181610000D01*
X344678000Y-157988000D02*
X349250000Y-162560000D01*
X358902000Y-181610000D02*
X374147000Y-196855000D01*
X335026000Y-124460000D02*
X335026000Y-133858000D01*
X335026000Y-133858000D02*
X344678000Y-143510000D01*
%TO.N,COL6*%
X473519000Y-196405000D02*
X477774000Y-200660000D01*
X368300000Y-162560000D02*
X368300000Y-171958000D01*
X477774000Y-200660000D02*
X480441000Y-200660000D01*
X368300000Y-171958000D02*
X377952000Y-181610000D01*
X317627000Y-120539497D02*
X325501000Y-120539497D01*
X334645000Y-120650000D02*
X342011000Y-120650000D01*
X363728000Y-157988000D02*
X368300000Y-162560000D01*
X392747000Y-196405000D02*
X473519000Y-196405000D01*
X377952000Y-181610000D02*
X392747000Y-196405000D01*
X354076000Y-124460000D02*
X354076000Y-133858000D01*
X354076000Y-133858000D02*
X363728000Y-143510000D01*
X352552000Y-125984000D02*
X354076000Y-124460000D01*
X363728000Y-143510000D02*
X363728000Y-157988000D01*
X351663000Y-125984000D02*
X352552000Y-125984000D01*
%TO.N,Expander_COL0*%
X382778000Y-143510000D02*
X382778000Y-157988000D01*
X387350000Y-162560000D02*
X387350000Y-171958000D01*
X373126000Y-133858000D02*
X382778000Y-143510000D01*
X373126000Y-124460000D02*
X373126000Y-133858000D01*
X387350000Y-171958000D02*
X397002000Y-181610000D01*
X382778000Y-157988000D02*
X387350000Y-162560000D01*
%TO.N,Expander_COL1*%
X412750000Y-181610000D02*
X416052000Y-181610000D01*
X391033000Y-189103000D02*
X393319000Y-191389000D01*
X401828000Y-157988000D02*
X406400000Y-162560000D01*
X406400000Y-162560000D02*
X406400000Y-175260000D01*
X389509000Y-189103000D02*
X391033000Y-189103000D01*
X415925000Y-191389000D02*
X416052000Y-191262000D01*
X392176000Y-133858000D02*
X401828000Y-143510000D01*
X401828000Y-143510000D02*
X401828000Y-157988000D01*
X406400000Y-175260000D02*
X412750000Y-181610000D01*
X416052000Y-191262000D02*
X416052000Y-181610000D01*
X392176000Y-124460000D02*
X392176000Y-133858000D01*
%TO.N,Expander_COL2*%
X387477000Y-177038000D02*
X394462000Y-184023000D01*
X394462000Y-184023000D02*
X404114000Y-184023000D01*
X404114000Y-184023000D02*
X404114000Y-184104412D01*
X411226000Y-133858000D02*
X420878000Y-143510000D01*
X425450000Y-162560000D02*
X425450000Y-171958000D01*
X404114000Y-184104412D02*
X415589588Y-195580000D01*
X420878000Y-157988000D02*
X425450000Y-162560000D01*
X425450000Y-171958000D02*
X435102000Y-181610000D01*
X411226000Y-124460000D02*
X411226000Y-133858000D01*
X415589588Y-195580000D02*
X434721000Y-195580000D01*
X435102000Y-195199000D02*
X435102000Y-181610000D01*
X420878000Y-143510000D02*
X420878000Y-157988000D01*
X434721000Y-195580000D02*
X435102000Y-195199000D01*
%TO.N,Expander_COL3*%
X439928000Y-157988000D02*
X444500000Y-162560000D01*
X385699000Y-170688000D02*
X386207000Y-170688000D01*
X404495000Y-172720000D02*
X404622000Y-172847000D01*
X444500000Y-162560000D02*
X444500000Y-171958000D01*
X383794000Y-172593000D02*
X385699000Y-170688000D01*
X399288000Y-172720000D02*
X404495000Y-172720000D01*
X430276000Y-124460000D02*
X430276000Y-133858000D01*
X444500000Y-171958000D02*
X454152000Y-181610000D01*
X439928000Y-143510000D02*
X439928000Y-157988000D01*
X430276000Y-133858000D02*
X439928000Y-143510000D01*
%TO.N,Expander_COL4*%
X386715000Y-160147000D02*
X390906000Y-160147000D01*
X374777000Y-160354294D02*
X374921432Y-160209862D01*
X458978000Y-143510000D02*
X458978000Y-157988000D01*
X390906000Y-160147000D02*
X391033000Y-160274000D01*
X374777000Y-163576000D02*
X374777000Y-160354294D01*
X449326000Y-124460000D02*
X449326000Y-133858000D01*
X449326000Y-133858000D02*
X458978000Y-143510000D01*
X463550000Y-162743757D02*
X482431243Y-181625000D01*
X463550000Y-162560000D02*
X463550000Y-162743757D01*
X458978000Y-157988000D02*
X463550000Y-162560000D01*
X482431243Y-181625000D02*
X489877000Y-181625000D01*
%TO.N,Expander_COL5*%
X501593243Y-200660000D02*
X504190000Y-200660000D01*
X468376000Y-133858000D02*
X478028000Y-143510000D01*
X468376000Y-124460000D02*
X468376000Y-133858000D01*
X495046000Y-194112757D02*
X501593243Y-200660000D01*
X491632000Y-162575000D02*
X494500000Y-162575000D01*
X373253000Y-164846000D02*
X373253000Y-159131000D01*
X385445000Y-159131000D02*
X389001000Y-159131000D01*
X478028000Y-148971000D02*
X491632000Y-162575000D01*
X495046000Y-163121000D02*
X495046000Y-194112757D01*
X478028000Y-143510000D02*
X478028000Y-148971000D01*
X494500000Y-162575000D02*
X495046000Y-163121000D01*
X389001000Y-159131000D02*
X390779000Y-157353000D01*
%TO.N,Expander_COL6*%
X496062000Y-137541000D02*
X501777000Y-143256000D01*
X487426000Y-124460000D02*
X496062000Y-133096000D01*
X390271000Y-156718000D02*
X390779000Y-156210000D01*
X361061000Y-155575000D02*
X362204000Y-154432000D01*
X358521000Y-155575000D02*
X361061000Y-155575000D01*
X383794000Y-156718000D02*
X390271000Y-156718000D01*
X501777000Y-143256000D02*
X501777000Y-143510000D01*
X496062000Y-133096000D02*
X496062000Y-137541000D01*
%TO.N,SDA*%
X192659000Y-198374000D02*
X190627000Y-196342000D01*
X190627000Y-128397000D02*
X190627000Y-123698000D01*
X202311000Y-197993000D02*
X198628000Y-201676000D01*
X195961000Y-201676000D02*
X192659000Y-198374000D01*
X190627000Y-123698000D02*
X192151000Y-122174000D01*
X190627000Y-196342000D02*
X190627000Y-128397000D01*
X198628000Y-201676000D02*
X195961000Y-201676000D01*
D22*
%TO.N,VDD*%
X195199000Y-188214000D02*
X201930000Y-188214000D01*
X201930000Y-188214000D02*
X202311000Y-187833000D01*
X195199000Y-188214000D02*
X192659000Y-188214000D01*
D21*
%TO.N,SCL*%
X195199000Y-198374000D02*
X191135000Y-194310000D01*
X191135000Y-181864000D02*
X191135000Y-126365000D01*
X191135000Y-126365000D02*
X192405000Y-125095000D01*
X191135000Y-194310000D02*
X191135000Y-181864000D01*
X202311000Y-195453000D02*
X197993000Y-199771000D01*
X196596000Y-199771000D02*
X195199000Y-198374000D01*
X197993000Y-199771000D02*
X196596000Y-199771000D01*
D22*
%TO.N,GND*%
X200787000Y-140208000D02*
X200787000Y-140843000D01*
X200787000Y-115951000D02*
X200787000Y-140208000D01*
X349856500Y-104365500D02*
X219992500Y-104365500D01*
X219992500Y-104365500D02*
X219964000Y-104394000D01*
X478917000Y-106553000D02*
X352044000Y-106553000D01*
X486011000Y-106553000D02*
X478917000Y-106553000D01*
X198374000Y-113538000D02*
X200787000Y-115951000D01*
X504110000Y-136652000D02*
X501610000Y-134152000D01*
X349885000Y-104394000D02*
X349856500Y-104365500D01*
X501610000Y-122152000D02*
X486011000Y-106553000D01*
X501610000Y-134152000D02*
X501610000Y-122152000D01*
X352044000Y-106553000D02*
X349885000Y-104394000D01*
D21*
%TO.N,Net-(U1-F6)*%
X223012000Y-105918000D02*
X349502604Y-105918000D01*
X483756402Y-107823000D02*
X493782701Y-117849299D01*
X356362000Y-107823000D02*
X483756402Y-107823000D01*
X351407604Y-107823000D02*
X356362000Y-107823000D01*
X349502604Y-105918000D02*
X351407604Y-107823000D01*
%TO.N,Net-(U1-F5)*%
X351536000Y-107315000D02*
X349377000Y-105156000D01*
X349377000Y-105156000D02*
X221742000Y-105156000D01*
X499110000Y-122152000D02*
X484273000Y-107315000D01*
X484273000Y-107315000D02*
X358140000Y-107315000D01*
X358140000Y-107315000D02*
X351536000Y-107315000D01*
%TD*%
M02*
