%TF.GenerationSoftware,KiCad,Pcbnew,(7.0.0)*%
%TF.CreationDate,2023-12-21T18:15:09-08:00*%
%TF.ProjectId,Seeb61,53656562-3631-42e6-9b69-6361645f7063,rev?*%
%TF.SameCoordinates,Original*%
%TF.FileFunction,Soldermask,Top*%
%TF.FilePolarity,Negative*%
%FSLAX46Y46*%
G04 Gerber Fmt 4.6, Leading zero omitted, Abs format (unit mm)*
G04 Created by KiCad (PCBNEW (7.0.0)) date 2023-12-21 18:15:09*
%MOMM*%
%LPD*%
G01*
G04 APERTURE LIST*
%ADD10C,3.050000*%
%ADD11C,4.000000*%
%ADD12C,1.700000*%
%ADD13C,2.200000*%
%ADD14C,1.651000*%
%ADD15R,1.651000X1.651000*%
%ADD16R,1.600000X1.600000*%
%ADD17C,1.600000*%
%ADD18C,2.000000*%
%ADD19O,2.000000X3.200000*%
%ADD20R,2.000000X2.000000*%
G04 APERTURE END LIST*
D10*
%TO.C,MX22*%
X237236000Y-179705000D03*
D11*
X237236000Y-194945000D03*
D12*
X244056000Y-186705000D03*
D11*
X249136000Y-186705000D03*
D12*
X254216000Y-186705000D03*
D10*
X261036000Y-179705000D03*
D11*
X261036000Y-194945000D03*
D13*
X251676000Y-181625000D03*
X245326000Y-184165000D03*
%TD*%
D10*
%TO.C,MX55*%
X480060000Y-160655000D03*
D11*
X480060000Y-175895000D03*
D12*
X486880000Y-167655000D03*
D11*
X491960000Y-167655000D03*
D12*
X497040000Y-167655000D03*
D10*
X503860000Y-160655000D03*
D11*
X503860000Y-175895000D03*
D13*
X494500000Y-162575000D03*
X488150000Y-165115000D03*
%TD*%
D14*
%TO.C,D27*%
X320675000Y-110109000D03*
D15*
X330834999Y-110108999D03*
%TD*%
D12*
%TO.C,MX48*%
X470408000Y-148590000D03*
D11*
X475488000Y-148590000D03*
D12*
X480568000Y-148590000D03*
D13*
X478028000Y-143510000D03*
X471678000Y-146050000D03*
%TD*%
D12*
%TO.C,MX52*%
X417830000Y-167640000D03*
D11*
X422910000Y-167640000D03*
D12*
X427990000Y-167640000D03*
D13*
X425450000Y-162560000D03*
X419100000Y-165100000D03*
%TD*%
D14*
%TO.C,D69*%
X471678000Y-110109000D03*
D15*
X481837999Y-110108999D03*
%TD*%
D14*
%TO.C,D49*%
X393065000Y-110109000D03*
D15*
X403224999Y-110108999D03*
%TD*%
D14*
%TO.C,D46*%
X393065000Y-117729000D03*
D15*
X403224999Y-117728999D03*
%TD*%
D12*
%TO.C,MX8*%
X236982000Y-148590000D03*
D11*
X242062000Y-148590000D03*
D12*
X247142000Y-148590000D03*
D13*
X244602000Y-143510000D03*
X238252000Y-146050000D03*
%TD*%
D14*
%TO.C,D38*%
X358267000Y-112649000D03*
D15*
X368426999Y-112648999D03*
%TD*%
D12*
%TO.C,MX45*%
X413258000Y-148590000D03*
D11*
X418338000Y-148590000D03*
D12*
X423418000Y-148590000D03*
D13*
X420878000Y-143510000D03*
X414528000Y-146050000D03*
%TD*%
D12*
%TO.C,MX11*%
X298958000Y-148590000D03*
D11*
X304038000Y-148590000D03*
D12*
X309118000Y-148590000D03*
D13*
X306578000Y-143510000D03*
X300228000Y-146050000D03*
%TD*%
D14*
%TO.C,D9*%
X247142000Y-115316000D03*
D15*
X257301999Y-115315999D03*
%TD*%
D12*
%TO.C,MX34*%
X448945000Y-205740000D03*
D11*
X454025000Y-205740000D03*
D12*
X459105000Y-205740000D03*
D13*
X456565000Y-200660000D03*
X450215000Y-203200000D03*
%TD*%
D12*
%TO.C,MX9*%
X260858000Y-148590000D03*
D11*
X265938000Y-148590000D03*
D12*
X271018000Y-148590000D03*
D13*
X268478000Y-143510000D03*
X262128000Y-146050000D03*
%TD*%
D12*
%TO.C,MX62*%
X496570000Y-205740000D03*
D11*
X501650000Y-205740000D03*
D12*
X506730000Y-205740000D03*
D13*
X504190000Y-200660000D03*
X497840000Y-203200000D03*
%TD*%
D12*
%TO.C,MX51*%
X398780000Y-167640000D03*
D11*
X403860000Y-167640000D03*
D12*
X408940000Y-167640000D03*
D13*
X406400000Y-162560000D03*
X400050000Y-165100000D03*
%TD*%
D14*
%TO.C,D26*%
X301752000Y-110109000D03*
D15*
X311911999Y-110108999D03*
%TD*%
D14*
%TO.C,D29*%
X228473000Y-107569000D03*
D15*
X238632999Y-107568999D03*
%TD*%
D14*
%TO.C,D44*%
X377063000Y-110109000D03*
D15*
X387222999Y-110108999D03*
%TD*%
D12*
%TO.C,MX21*%
X360680000Y-167640000D03*
D11*
X365760000Y-167640000D03*
D12*
X370840000Y-167640000D03*
D13*
X368300000Y-162560000D03*
X361950000Y-165100000D03*
%TD*%
D12*
%TO.C,MX18*%
X303530000Y-167640000D03*
D11*
X308610000Y-167640000D03*
D12*
X313690000Y-167640000D03*
D13*
X311150000Y-162560000D03*
X304800000Y-165100000D03*
%TD*%
D14*
%TO.C,D13*%
X320675000Y-115189000D03*
D15*
X330834999Y-115188999D03*
%TD*%
D14*
%TO.C,D67*%
X471678000Y-115189000D03*
D15*
X481837999Y-115188999D03*
%TD*%
D14*
%TO.C,D64*%
X454152000Y-110109000D03*
D15*
X464311999Y-110108999D03*
%TD*%
D12*
%TO.C,MX25*%
X313182000Y-186690000D03*
D11*
X318262000Y-186690000D03*
D12*
X323342000Y-186690000D03*
D13*
X320802000Y-181610000D03*
X314452000Y-184150000D03*
%TD*%
D14*
%TO.C,D15*%
X228473000Y-112776000D03*
D15*
X238632999Y-112775999D03*
%TD*%
D14*
%TO.C,D41*%
X377063000Y-117729000D03*
D15*
X387222999Y-117728999D03*
%TD*%
D12*
%TO.C,MX26*%
X332232000Y-186690000D03*
D11*
X337312000Y-186690000D03*
D12*
X342392000Y-186690000D03*
D13*
X339852000Y-181610000D03*
X333502000Y-184150000D03*
%TD*%
%TO.C,M2*%
X181610000Y-105156000D03*
%TD*%
D16*
%TO.C,U2*%
X202310999Y-167512999D03*
D17*
X202311000Y-170053000D03*
X202311000Y-172593000D03*
X202311000Y-175133000D03*
X202311000Y-177673000D03*
X202311000Y-180213000D03*
X202311000Y-182753000D03*
X202311000Y-185293000D03*
X202311000Y-187833000D03*
X202311000Y-190373000D03*
X202311000Y-192913000D03*
X202311000Y-195453000D03*
X202311000Y-197993000D03*
X202311000Y-200533000D03*
X209931000Y-200533000D03*
X209931000Y-197993000D03*
X209931000Y-195453000D03*
X209931000Y-192913000D03*
X209931000Y-190373000D03*
X209931000Y-187833000D03*
X209931000Y-185293000D03*
X209931000Y-182753000D03*
X209931000Y-180213000D03*
X209931000Y-177673000D03*
X209931000Y-175133000D03*
X209931000Y-172593000D03*
X209931000Y-170053000D03*
X209931000Y-167513000D03*
%TD*%
D14*
%TO.C,D5*%
X301752000Y-117729000D03*
D15*
X311911999Y-117728999D03*
%TD*%
D12*
%TO.C,MX57*%
X389382000Y-186690000D03*
D11*
X394462000Y-186690000D03*
D12*
X399542000Y-186690000D03*
D13*
X397002000Y-181610000D03*
X390652000Y-184150000D03*
%TD*%
D14*
%TO.C,D7*%
X338201000Y-117729000D03*
D15*
X348360999Y-117728999D03*
%TD*%
D12*
%TO.C,MX1*%
X232156000Y-129540000D03*
D11*
X237236000Y-129540000D03*
D12*
X242316000Y-129540000D03*
D13*
X239776000Y-124460000D03*
X233426000Y-127000000D03*
%TD*%
D12*
%TO.C,MX58*%
X408432000Y-186690000D03*
D11*
X413512000Y-186690000D03*
D12*
X418592000Y-186690000D03*
D13*
X416052000Y-181610000D03*
X409702000Y-184150000D03*
%TD*%
D14*
%TO.C,D6*%
X320675000Y-117729000D03*
D15*
X330834999Y-117728999D03*
%TD*%
D12*
%TO.C,MX41*%
X460756000Y-129540000D03*
D11*
X465836000Y-129540000D03*
D12*
X470916000Y-129540000D03*
D13*
X468376000Y-124460000D03*
X462026000Y-127000000D03*
%TD*%
D14*
%TO.C,D16*%
X247142000Y-112776000D03*
D15*
X257301999Y-112775999D03*
%TD*%
D12*
%TO.C,MX15*%
X239268000Y-167640000D03*
D11*
X244348000Y-167640000D03*
D12*
X249428000Y-167640000D03*
D13*
X246888000Y-162560000D03*
X240538000Y-165100000D03*
%TD*%
D12*
%TO.C,MX39*%
X422656000Y-129540000D03*
D11*
X427736000Y-129540000D03*
D12*
X432816000Y-129540000D03*
D13*
X430276000Y-124460000D03*
X423926000Y-127000000D03*
%TD*%
D12*
%TO.C,MX12*%
X318008000Y-148590000D03*
D11*
X323088000Y-148590000D03*
D12*
X328168000Y-148590000D03*
D13*
X325628000Y-143510000D03*
X319278000Y-146050000D03*
%TD*%
D14*
%TO.C,R1*%
X192659000Y-198374000D03*
X192659000Y-188214000D03*
%TD*%
D12*
%TO.C,MX6*%
X327406000Y-129540000D03*
D11*
X332486000Y-129540000D03*
D12*
X337566000Y-129540000D03*
D13*
X335026000Y-124460000D03*
X328676000Y-127000000D03*
%TD*%
D14*
%TO.C,D58*%
X434467000Y-112649000D03*
D15*
X444626999Y-112648999D03*
%TD*%
D18*
%TO.C,SW1*%
X185778000Y-110562000D03*
X192278000Y-110562000D03*
X185778000Y-115062000D03*
X192278000Y-115062000D03*
%TD*%
D12*
%TO.C,MX38*%
X403606000Y-129540000D03*
D11*
X408686000Y-129540000D03*
D12*
X413766000Y-129540000D03*
D13*
X411226000Y-124460000D03*
X404876000Y-127000000D03*
%TD*%
D14*
%TO.C,D66*%
X471678000Y-117729000D03*
D15*
X481837999Y-117728999D03*
%TD*%
D12*
%TO.C,MX13*%
X337058000Y-148590000D03*
D11*
X342138000Y-148590000D03*
D12*
X347218000Y-148590000D03*
D13*
X344678000Y-143510000D03*
X338328000Y-146050000D03*
%TD*%
D14*
%TO.C,D59*%
X434467000Y-110109000D03*
D15*
X444626999Y-110108999D03*
%TD*%
D14*
%TO.C,R2*%
X195199000Y-198374000D03*
X195199000Y-188214000D03*
%TD*%
%TO.C,D17*%
X263652000Y-112649000D03*
D15*
X273811999Y-112648999D03*
%TD*%
D13*
%TO.C,M2*%
X181229000Y-215138000D03*
%TD*%
D12*
%TO.C,MX3*%
X270256000Y-129540000D03*
D11*
X275336000Y-129540000D03*
D12*
X280416000Y-129540000D03*
D13*
X277876000Y-124460000D03*
X271526000Y-127000000D03*
%TD*%
D14*
%TO.C,D30*%
X247142000Y-107696000D03*
D15*
X257301999Y-107695999D03*
%TD*%
D12*
%TO.C,MX31*%
X282194000Y-205740000D03*
D11*
X287274000Y-205740000D03*
D12*
X292354000Y-205740000D03*
D13*
X289814000Y-200660000D03*
X283464000Y-203200000D03*
%TD*%
D14*
%TO.C,D25*%
X281940000Y-110109000D03*
D15*
X292099999Y-110108999D03*
%TD*%
D13*
%TO.C,M2*%
X514096000Y-105283000D03*
%TD*%
D14*
%TO.C,D42*%
X377063000Y-115189000D03*
D15*
X387222999Y-115188999D03*
%TD*%
D14*
%TO.C,D14*%
X338201000Y-115189000D03*
D15*
X348360999Y-115188999D03*
%TD*%
D12*
%TO.C,MX5*%
X308356000Y-129540000D03*
D11*
X313436000Y-129540000D03*
D12*
X318516000Y-129540000D03*
D13*
X315976000Y-124460000D03*
X309626000Y-127000000D03*
%TD*%
D14*
%TO.C,D54*%
X414528000Y-110109000D03*
D15*
X424687999Y-110108999D03*
%TD*%
D14*
%TO.C,D63*%
X454152000Y-112649000D03*
D15*
X464311999Y-112648999D03*
%TD*%
D12*
%TO.C,MX59*%
X427482000Y-186690000D03*
D11*
X432562000Y-186690000D03*
D12*
X437642000Y-186690000D03*
D13*
X435102000Y-181610000D03*
X428752000Y-184150000D03*
%TD*%
D14*
%TO.C,D12*%
X301752000Y-115189000D03*
D15*
X311911999Y-115188999D03*
%TD*%
D14*
%TO.C,D61*%
X454152000Y-117729000D03*
D15*
X464311999Y-117728999D03*
%TD*%
D14*
%TO.C,D34*%
X320675000Y-107569000D03*
D15*
X330834999Y-107568999D03*
%TD*%
D12*
%TO.C,MX40*%
X441706000Y-129540000D03*
D11*
X446786000Y-129540000D03*
D12*
X451866000Y-129540000D03*
D13*
X449326000Y-124460000D03*
X442976000Y-127000000D03*
%TD*%
D14*
%TO.C,D51*%
X414528000Y-117729000D03*
D15*
X424687999Y-117728999D03*
%TD*%
D12*
%TO.C,MX20*%
X341630000Y-167640000D03*
D11*
X346710000Y-167640000D03*
D12*
X351790000Y-167640000D03*
D13*
X349250000Y-162560000D03*
X342900000Y-165100000D03*
%TD*%
D14*
%TO.C,D39*%
X358267000Y-110109000D03*
D15*
X368426999Y-110108999D03*
%TD*%
D14*
%TO.C,D2*%
X247142000Y-117856000D03*
D15*
X257301999Y-117855999D03*
%TD*%
D14*
%TO.C,D48*%
X393065000Y-112649000D03*
D15*
X403224999Y-112648999D03*
%TD*%
D14*
%TO.C,D53*%
X414528000Y-112649000D03*
D15*
X424687999Y-112648999D03*
%TD*%
D14*
%TO.C,D47*%
X393065000Y-115189000D03*
D15*
X403224999Y-115188999D03*
%TD*%
D14*
%TO.C,D10*%
X263652000Y-115189000D03*
D15*
X273811999Y-115188999D03*
%TD*%
D19*
%TO.C,SW2*%
X507209999Y-129651999D03*
X496009999Y-129651999D03*
D20*
X504109999Y-122151999D03*
D18*
X499110000Y-122152000D03*
X501610000Y-122152000D03*
X499110000Y-136652000D03*
X504110000Y-136652000D03*
%TD*%
D14*
%TO.C,D11*%
X281940000Y-115189000D03*
D15*
X292099999Y-115188999D03*
%TD*%
D12*
%TO.C,MX14*%
X356108000Y-148590000D03*
D11*
X361188000Y-148590000D03*
D12*
X366268000Y-148590000D03*
D13*
X363728000Y-143510000D03*
X357378000Y-146050000D03*
%TD*%
D12*
%TO.C,MX2*%
X251206000Y-129540000D03*
D11*
X256286000Y-129540000D03*
D12*
X261366000Y-129540000D03*
D13*
X258826000Y-124460000D03*
X252476000Y-127000000D03*
%TD*%
D14*
%TO.C,D37*%
X358267000Y-115189000D03*
D15*
X368426999Y-115188999D03*
%TD*%
D12*
%TO.C,MX37*%
X384556000Y-129540000D03*
D11*
X389636000Y-129540000D03*
D12*
X394716000Y-129540000D03*
D13*
X392176000Y-124460000D03*
X385826000Y-127000000D03*
%TD*%
D12*
%TO.C,MX47*%
X451358000Y-148590000D03*
D11*
X456438000Y-148590000D03*
D12*
X461518000Y-148590000D03*
D13*
X458978000Y-143510000D03*
X452628000Y-146050000D03*
%TD*%
D12*
%TO.C,MX46*%
X432308000Y-148590000D03*
D11*
X437388000Y-148590000D03*
D12*
X442468000Y-148590000D03*
D13*
X439928000Y-143510000D03*
X433578000Y-146050000D03*
%TD*%
D12*
%TO.C,MX42*%
X479806000Y-129540000D03*
D11*
X484886000Y-129540000D03*
D12*
X489966000Y-129540000D03*
D13*
X487426000Y-124460000D03*
X481076000Y-127000000D03*
%TD*%
D12*
%TO.C,MX28*%
X370332000Y-186690000D03*
D11*
X375412000Y-186690000D03*
D12*
X380492000Y-186690000D03*
D13*
X377952000Y-181610000D03*
X371602000Y-184150000D03*
%TD*%
D12*
%TO.C,MX24*%
X294132000Y-186690000D03*
D11*
X299212000Y-186690000D03*
D12*
X304292000Y-186690000D03*
D13*
X301752000Y-181610000D03*
X295402000Y-184150000D03*
%TD*%
D12*
%TO.C,MX23*%
X275082000Y-186690000D03*
D11*
X280162000Y-186690000D03*
D12*
X285242000Y-186690000D03*
D13*
X282702000Y-181610000D03*
X276352000Y-184150000D03*
%TD*%
D14*
%TO.C,D21*%
X338201000Y-112522000D03*
D15*
X348360999Y-112521999D03*
%TD*%
D14*
%TO.C,D1*%
X228473000Y-117856000D03*
D15*
X238632999Y-117855999D03*
%TD*%
D12*
%TO.C,MX53*%
X436880000Y-167640000D03*
D11*
X441960000Y-167640000D03*
D12*
X447040000Y-167640000D03*
D13*
X444500000Y-162560000D03*
X438150000Y-165100000D03*
%TD*%
D14*
%TO.C,D43*%
X377063000Y-112649000D03*
D15*
X387222999Y-112648999D03*
%TD*%
D12*
%TO.C,MX29*%
X234569000Y-205740000D03*
D11*
X239649000Y-205740000D03*
D12*
X244729000Y-205740000D03*
D13*
X242189000Y-200660000D03*
X235839000Y-203200000D03*
%TD*%
D14*
%TO.C,D3*%
X263652000Y-117729000D03*
D15*
X273811999Y-117728999D03*
%TD*%
D12*
%TO.C,MX35*%
X472821000Y-205740000D03*
D11*
X477901000Y-205740000D03*
D12*
X482981000Y-205740000D03*
D13*
X480441000Y-200660000D03*
X474091000Y-203200000D03*
%TD*%
D14*
%TO.C,D32*%
X281940000Y-107569000D03*
D15*
X292099999Y-107568999D03*
%TD*%
D12*
%TO.C,MX49*%
X494157000Y-148590000D03*
D11*
X499237000Y-148590000D03*
D12*
X504317000Y-148590000D03*
D13*
X501777000Y-143510000D03*
X495427000Y-146050000D03*
%TD*%
D12*
%TO.C,MX27*%
X351282000Y-186690000D03*
D11*
X356362000Y-186690000D03*
D12*
X361442000Y-186690000D03*
D13*
X358902000Y-181610000D03*
X352552000Y-184150000D03*
%TD*%
D12*
%TO.C,MX54*%
X455930000Y-167640000D03*
D11*
X461010000Y-167640000D03*
D12*
X466090000Y-167640000D03*
D13*
X463550000Y-162560000D03*
X457200000Y-165100000D03*
%TD*%
D14*
%TO.C,D22*%
X228473000Y-110236000D03*
D15*
X238632999Y-110235999D03*
%TD*%
D14*
%TO.C,D20*%
X320675000Y-112649000D03*
D15*
X330834999Y-112648999D03*
%TD*%
D12*
%TO.C,MX36*%
X365506000Y-129540000D03*
D11*
X370586000Y-129540000D03*
D12*
X375666000Y-129540000D03*
D13*
X373126000Y-124460000D03*
X366776000Y-127000000D03*
%TD*%
D12*
%TO.C,MX50*%
X379730000Y-167640000D03*
D11*
X384810000Y-167640000D03*
D12*
X389890000Y-167640000D03*
D13*
X387350000Y-162560000D03*
X381000000Y-165100000D03*
%TD*%
D14*
%TO.C,D62*%
X454152000Y-115189000D03*
D15*
X464311999Y-115188999D03*
%TD*%
D14*
%TO.C,D52*%
X414528000Y-115189000D03*
D15*
X424687999Y-115188999D03*
%TD*%
D10*
%TO.C,MX61*%
X475437000Y-179705000D03*
D11*
X475437000Y-194945000D03*
D12*
X482257000Y-186705000D03*
D11*
X487337000Y-186705000D03*
D12*
X492417000Y-186705000D03*
D10*
X499237000Y-179705000D03*
D11*
X499237000Y-194945000D03*
D13*
X489877000Y-181625000D03*
X483527000Y-184165000D03*
%TD*%
D14*
%TO.C,D24*%
X263652000Y-110109000D03*
D15*
X273811999Y-110108999D03*
%TD*%
D12*
%TO.C,MX17*%
X284480000Y-167640000D03*
D11*
X289560000Y-167640000D03*
D12*
X294640000Y-167640000D03*
D13*
X292100000Y-162560000D03*
X285750000Y-165100000D03*
%TD*%
D14*
%TO.C,D8*%
X228473000Y-115316000D03*
D15*
X238632999Y-115315999D03*
%TD*%
D14*
%TO.C,D68*%
X471678000Y-112649000D03*
D15*
X481837999Y-112648999D03*
%TD*%
D14*
%TO.C,D57*%
X434467000Y-115189000D03*
D15*
X444626999Y-115188999D03*
%TD*%
D12*
%TO.C,MX4*%
X289306000Y-129540000D03*
D11*
X294386000Y-129540000D03*
D12*
X299466000Y-129540000D03*
D13*
X296926000Y-124460000D03*
X290576000Y-127000000D03*
%TD*%
D14*
%TO.C,D19*%
X301752000Y-112649000D03*
D15*
X311911999Y-112648999D03*
%TD*%
D12*
%TO.C,MX30*%
X258318000Y-205740000D03*
D11*
X263398000Y-205740000D03*
D12*
X268478000Y-205740000D03*
D13*
X265938000Y-200660000D03*
X259588000Y-203200000D03*
%TD*%
D14*
%TO.C,D33*%
X301752000Y-107696000D03*
D15*
X311911999Y-107695999D03*
%TD*%
D14*
%TO.C,D23*%
X247142000Y-110236000D03*
D15*
X257301999Y-110235999D03*
%TD*%
D14*
%TO.C,D4*%
X281940000Y-117729000D03*
D15*
X292099999Y-117728999D03*
%TD*%
D14*
%TO.C,D56*%
X434467000Y-117729000D03*
D15*
X444626999Y-117728999D03*
%TD*%
D12*
%TO.C,MX60*%
X446532000Y-186690000D03*
D11*
X451612000Y-186690000D03*
D12*
X456692000Y-186690000D03*
D13*
X454152000Y-181610000D03*
X447802000Y-184150000D03*
%TD*%
D14*
%TO.C,D28*%
X338201000Y-109982000D03*
D15*
X348360999Y-109981999D03*
%TD*%
D12*
%TO.C,MX33*%
X425069000Y-205740000D03*
D11*
X430149000Y-205740000D03*
D12*
X435229000Y-205740000D03*
D13*
X432689000Y-200660000D03*
X426339000Y-203200000D03*
%TD*%
D14*
%TO.C,D36*%
X358267000Y-117729000D03*
D15*
X368426999Y-117728999D03*
%TD*%
D12*
%TO.C,MX10*%
X279908000Y-148590000D03*
D11*
X284988000Y-148590000D03*
D12*
X290068000Y-148590000D03*
D13*
X287528000Y-143510000D03*
X281178000Y-146050000D03*
%TD*%
D12*
%TO.C,MX16*%
X265430000Y-167640000D03*
D11*
X270510000Y-167640000D03*
D12*
X275590000Y-167640000D03*
D13*
X273050000Y-162560000D03*
X266700000Y-165100000D03*
%TD*%
D12*
%TO.C,MX43*%
X375158000Y-148590000D03*
D11*
X380238000Y-148590000D03*
D12*
X385318000Y-148590000D03*
D13*
X382778000Y-143510000D03*
X376428000Y-146050000D03*
%TD*%
D14*
%TO.C,D18*%
X281940000Y-112649000D03*
D15*
X292099999Y-112648999D03*
%TD*%
D12*
%TO.C,MX19*%
X322580000Y-167640000D03*
D11*
X327660000Y-167640000D03*
D12*
X332740000Y-167640000D03*
D13*
X330200000Y-162560000D03*
X323850000Y-165100000D03*
%TD*%
D10*
%TO.C,MX32*%
X308737000Y-198755000D03*
D11*
X308737000Y-213995000D03*
D12*
X353657000Y-205755000D03*
D11*
X358737000Y-205755000D03*
D12*
X363817000Y-205755000D03*
D10*
X408737000Y-198755000D03*
D11*
X408737000Y-213995000D03*
D13*
X361277000Y-200675000D03*
X354927000Y-203215000D03*
%TD*%
D14*
%TO.C,D35*%
X338201000Y-107442000D03*
D15*
X348360999Y-107441999D03*
%TD*%
D12*
%TO.C,MX7*%
X346456000Y-129540000D03*
D11*
X351536000Y-129540000D03*
D12*
X356616000Y-129540000D03*
D13*
X354076000Y-124460000D03*
X347726000Y-127000000D03*
%TD*%
D14*
%TO.C,D31*%
X263652000Y-107569000D03*
D15*
X273811999Y-107568999D03*
%TD*%
D12*
%TO.C,MX44*%
X394208000Y-148590000D03*
D11*
X399288000Y-148590000D03*
D12*
X404368000Y-148590000D03*
D13*
X401828000Y-143510000D03*
X395478000Y-146050000D03*
%TD*%
%TO.C,M2*%
X514604000Y-215138000D03*
%TD*%
M02*
