M48
; DRILL file {KiCad (7.0.0)} date Thu Dec 21 18:15:25 2023
; FORMAT={-:-/ absolute / inch / decimal}
; #@! TF.CreationDate,2023-12-21T18:15:25-08:00
; #@! TF.GenerationSoftware,Kicad,Pcbnew,(7.0.0)
; #@! TF.FileFunction,Plated,1,2,PTH
FMAT,2
INCH
; #@! TA.AperFunction,Plated,PTH,ViaDrill
T1C0.0157
; #@! TA.AperFunction,Plated,PTH,ComponentDrill
T2C0.0390
; #@! TA.AperFunction,Plated,PTH,ComponentDrill
T3C0.0394
; #@! TA.AperFunction,Plated,PTH,ComponentDrill
T4C0.0433
; #@! TA.AperFunction,Plated,PTH,ComponentDrill
T5C0.0591
%
G90
G05
T1
X7.565Y-4.81
X7.575Y-4.925
X7.905Y-5.545
X7.93Y-4.305
X8.01Y-4.72
X8.565Y-5.585
X8.645Y-6.245
X8.66Y-4.11
X8.695Y-6.285
X8.73Y-4.14
X8.73Y-6.32
X8.78Y-4.17
X8.785Y-6.335
X8.845Y-5.375
X12.385Y-4.41
X12.42Y-4.485
X12.465Y-4.58
X12.505Y-4.7456
X12.505Y-4.785
X12.52Y-4.685
X12.815Y-4.7456
X12.815Y-4.785
X13.115Y-4.565
X13.12Y-4.705
X13.15Y-4.325
X13.15Y-4.505
X13.175Y-4.75
X13.465Y-4.75
X13.78Y-5.855
X13.815Y-5.875
X13.825Y-5.7
X13.845Y-4.96
X13.845Y-5.91
X13.875Y-5.695
X13.9Y-5.74
X14.04Y-6.02
X14.115Y-6.125
X14.18Y-5.155
X14.2178Y-5.1442
X14.24Y-6.02
X14.2464Y-5.195
X14.26Y-6.08
X14.2838Y-5.28
X14.695Y-6.265
X14.695Y-6.49
X14.755Y-6.44
X14.7607Y-6.3075
X15.11Y-6.17
X15.11Y-6.795
X15.175Y-6.265
X15.205Y-6.72
X15.225Y-6.305
X15.255Y-6.97
X15.335Y-7.445
X15.385Y-6.15
X15.385Y-6.195
X15.395Y-6.31
X15.485Y-7.535
X15.72Y-6.8
X15.93Y-6.805
X16.375Y-7.535
X16.525Y-7.01
X16.635Y-7.24
X19.4403Y-4.6397
T2
X7.585Y-7.41
X7.585Y-7.81
X7.685Y-7.41
X7.685Y-7.81
X8.995Y-4.235
X8.995Y-4.34
X8.995Y-4.44
X8.995Y-4.54
X8.995Y-4.64
X9.395Y-4.235
X9.395Y-4.34
X9.395Y-4.44
X9.395Y-4.54
X9.395Y-4.64
X9.73Y-4.24
X9.73Y-4.34
X9.73Y-4.44
X9.73Y-4.54
X9.73Y-4.64
X10.13Y-4.24
X10.13Y-4.34
X10.13Y-4.44
X10.13Y-4.54
X10.13Y-4.64
X10.38Y-4.235
X10.38Y-4.335
X10.38Y-4.435
X10.38Y-4.535
X10.38Y-4.635
X10.78Y-4.235
X10.78Y-4.335
X10.78Y-4.435
X10.78Y-4.535
X10.78Y-4.635
X11.1Y-4.235
X11.1Y-4.335
X11.1Y-4.435
X11.1Y-4.535
X11.1Y-4.635
X11.5Y-4.235
X11.5Y-4.335
X11.5Y-4.435
X11.5Y-4.535
X11.5Y-4.635
X11.88Y-4.24
X11.88Y-4.335
X11.88Y-4.435
X11.88Y-4.535
X11.88Y-4.635
X12.28Y-4.24
X12.28Y-4.335
X12.28Y-4.435
X12.28Y-4.535
X12.28Y-4.635
X12.625Y-4.235
X12.625Y-4.335
X12.625Y-4.435
X12.625Y-4.535
X12.625Y-4.635
X13.025Y-4.235
X13.025Y-4.335
X13.025Y-4.435
X13.025Y-4.535
X13.025Y-4.635
X13.315Y-4.23
X13.315Y-4.33
X13.315Y-4.43
X13.315Y-4.535
X13.315Y-4.635
X13.715Y-4.23
X13.715Y-4.33
X13.715Y-4.43
X13.715Y-4.535
X13.715Y-4.635
X14.105Y-4.335
X14.105Y-4.435
X14.105Y-4.535
X14.105Y-4.635
X14.505Y-4.335
X14.505Y-4.435
X14.505Y-4.535
X14.505Y-4.635
X14.845Y-4.335
X14.845Y-4.435
X14.845Y-4.535
X14.845Y-4.635
X15.245Y-4.335
X15.245Y-4.435
X15.245Y-4.535
X15.245Y-4.635
X15.475Y-4.335
X15.475Y-4.435
X15.475Y-4.535
X15.475Y-4.635
X15.875Y-4.335
X15.875Y-4.435
X15.875Y-4.535
X15.875Y-4.635
X16.32Y-4.335
X16.32Y-4.435
X16.32Y-4.535
X16.32Y-4.635
X16.72Y-4.335
X16.72Y-4.435
X16.72Y-4.535
X16.72Y-4.635
X17.105Y-4.335
X17.105Y-4.435
X17.105Y-4.535
X17.105Y-4.635
X17.505Y-4.335
X17.505Y-4.435
X17.505Y-4.535
X17.505Y-4.635
X17.88Y-4.335
X17.88Y-4.435
X17.88Y-4.535
X17.88Y-4.635
X18.28Y-4.335
X18.28Y-4.435
X18.28Y-4.535
X18.28Y-4.635
X18.57Y-4.335
X18.57Y-4.435
X18.57Y-4.535
X18.57Y-4.635
X18.97Y-4.335
X18.97Y-4.435
X18.97Y-4.535
X18.97Y-4.635
T3
X7.81Y-4.17
X7.81Y-4.27
X7.81Y-4.37
X7.81Y-4.47
X7.81Y-4.57
X7.81Y-4.67
X7.81Y-4.77
X7.81Y-4.87
X7.81Y-4.97
X7.81Y-5.07
X7.81Y-5.17
X7.81Y-5.27
X7.965Y-6.595
X7.965Y-6.695
X7.965Y-6.795
X7.965Y-6.895
X7.965Y-6.995
X7.965Y-7.095
X7.965Y-7.195
X7.965Y-7.295
X7.965Y-7.395
X7.965Y-7.495
X7.965Y-7.595
X7.965Y-7.695
X7.965Y-7.795
X7.965Y-7.895
X8.265Y-6.595
X8.265Y-6.695
X8.265Y-6.795
X8.265Y-6.895
X8.265Y-6.995
X8.265Y-7.095
X8.265Y-7.195
X8.265Y-7.295
X8.265Y-7.395
X8.265Y-7.495
X8.265Y-7.595
X8.265Y-7.695
X8.265Y-7.795
X8.265Y-7.895
X8.41Y-4.17
X8.41Y-4.27
X8.41Y-4.37
X8.41Y-4.47
X8.41Y-4.57
X8.41Y-4.67
X8.41Y-4.77
X8.41Y-4.87
X8.41Y-4.97
X8.41Y-5.07
X8.41Y-5.17
X8.41Y-5.27
X19.65Y-4.8091
X19.65Y-5.38
X19.7484Y-4.8091
X19.8469Y-4.8091
X19.8469Y-5.38
T4
X7.3141Y-4.3528
X7.3141Y-4.53
X7.57Y-4.3528
X7.57Y-4.53
T5
X9.19Y-5.0
X9.285Y-8.0
X9.38Y-5.75
X9.44Y-4.9
X9.47Y-6.5
X9.535Y-7.9
X9.63Y-5.65
X9.6585Y-7.2506
X9.72Y-6.4
X9.9085Y-7.1506
X9.94Y-5.0
X10.19Y-4.9
X10.22Y-8.0
X10.32Y-5.75
X10.47Y-7.9
X10.5Y-6.5
X10.57Y-5.65
X10.69Y-5.0
X10.75Y-6.4
X10.88Y-7.25
X10.94Y-4.9
X11.07Y-5.75
X11.13Y-7.15
X11.16Y-8.0
X11.25Y-6.5
X11.32Y-5.65
X11.41Y-7.9
X11.44Y-5.0
X11.5Y-6.4
X11.63Y-7.25
X11.69Y-4.9
X11.82Y-5.75
X11.88Y-7.15
X12.0Y-6.5
X12.07Y-5.65
X12.19Y-5.0
X12.25Y-6.4
X12.38Y-7.25
X12.44Y-4.9
X12.57Y-5.75
X12.63Y-7.15
X12.75Y-6.5
X12.82Y-5.65
X12.94Y-5.0
X13.0Y-6.4
X13.13Y-7.25
X13.19Y-4.9
X13.32Y-5.75
X13.38Y-7.15
X13.5Y-6.5
X13.57Y-5.65
X13.69Y-5.0
X13.75Y-6.4
X13.88Y-7.25
X13.94Y-4.9
X13.9735Y-8.0006
X14.07Y-5.75
X14.13Y-7.15
X14.2235Y-7.9006
X14.25Y-6.5
X14.32Y-5.65
X14.44Y-5.0
X14.5Y-6.4
X14.63Y-7.25
X14.69Y-4.9
X14.82Y-5.75
X14.88Y-7.15
X15.0Y-6.5
X15.07Y-5.65
X15.19Y-5.0
X15.25Y-6.4
X15.38Y-7.25
X15.44Y-4.9
X15.57Y-5.75
X15.63Y-7.15
X15.75Y-6.5
X15.82Y-5.65
X15.94Y-5.0
X16.0Y-6.4
X16.13Y-7.25
X16.19Y-4.9
X16.32Y-5.75
X16.38Y-7.15
X16.5Y-6.5
X16.57Y-5.65
X16.69Y-5.0
X16.75Y-6.4
X16.785Y-8.0
X16.88Y-7.25
X16.94Y-4.9
X17.035Y-7.9
X17.07Y-5.75
X17.13Y-7.15
X17.25Y-6.5
X17.32Y-5.65
X17.44Y-5.0
X17.5Y-6.4
X17.63Y-7.25
X17.69Y-4.9
X17.725Y-8.0
X17.82Y-5.75
X17.88Y-7.15
X17.975Y-7.9
X18.0Y-6.5
X18.07Y-5.65
X18.19Y-5.0
X18.25Y-6.4
X18.44Y-4.9
X18.57Y-5.75
X18.665Y-8.0
X18.82Y-5.65
X18.915Y-7.9
X18.94Y-5.0
X19.0365Y-7.2506
X19.19Y-4.9
X19.2185Y-6.5006
X19.2865Y-7.1506
X19.4685Y-6.4006
X19.505Y-5.75
X19.6Y-8.0
X19.755Y-5.65
X19.85Y-7.9
T0
M30
